<?xml version="1.0" standalone="no"?>
<!DOCTYPE svg PUBLIC "-//W3C//DTD SVG 20010904//EN"
 "http://www.w3.org/TR/2001/REC-SVG-20010904/DTD/svg10.dtd">
<svg version="1.0" xmlns="http://www.w3.org/2000/svg"
 width="300.000000pt" height="300.000000pt" viewBox="0 0 300.000000 300.000000"
 preserveAspectRatio="xMidYMid meet">
<metadata>
Created by potrace 1.11, written by Peter Selinger 2001-2013
</metadata>
<g transform="translate(0.000000,300.000000) scale(0.100000,-0.100000)"
fill="#000000" stroke="none">
<path d="M1460 2936 c0 -2 7 -7 16 -10 8 -3 12 -2 9 4 -6 10 -25 14 -25 6z"/>
<path d="M1503 2926 c0 -14 33 -14 46 0 3 4 -1 5 -10 1 -9 -3 -21 -1 -26 4 -6
6 -10 4 -10 -5z"/>
<path d="M1580 2931 c0 -6 4 -13 10 -16 6 -3 7 1 4 9 -7 18 -14 21 -14 7z"/>
<path d="M1624 2926 c-10 -8 -16 -18 -11 -22 4 -4 7 -2 7 4 0 7 5 12 11 12 5
0 7 -4 4 -10 -3 -5 -2 -10 4 -10 5 0 9 9 8 20 -1 11 -2 20 -2 20 -1 0 -10 -6
-21 -14z"/>
<path d="M1299 2913 c14 -27 14 -36 1 -28 -5 3 -16 3 -22 -2 -7 -4 -24 -8 -38
-9 -14 0 -24 -5 -23 -10 1 -5 -7 -10 -18 -10 -10 0 -19 4 -19 8 0 4 -7 8 -15
8 -8 0 -15 -5 -15 -11 0 -5 5 -7 12 -3 7 4 8 3 4 -5 -4 -6 -11 -9 -16 -6 -5 3
-11 1 -15 -4 -3 -5 -14 -8 -25 -6 -11 2 -20 -2 -20 -8 0 -7 -9 -1 -19 12 -14
18 -20 21 -26 11 -5 -8 -4 -11 2 -7 6 4 14 0 17 -9 4 -11 2 -15 -8 -11 -10 4
-13 1 -9 -9 4 -10 0 -12 -11 -8 -9 3 -16 1 -16 -6 0 -6 -4 -9 -10 -5 -5 3 -7
13 -4 23 3 9 -3 5 -12 -10 -10 -16 -25 -28 -32 -28 -7 0 -11 -4 -7 -9 6 -10
-15 -8 -50 4 -18 7 -18 6 -5 -6 8 -8 14 -13 12 -13 -2 1 -15 -9 -29 -22 -14
-13 -35 -24 -45 -24 -11 0 -16 -4 -13 -10 6 -10 -7 -14 -34 -10 -9 1 -12 -4
-8 -14 4 -10 1 -16 -8 -16 -9 0 -12 6 -9 15 4 8 1 15 -7 15 -7 0 -9 -3 -6 -7
4 -3 1 -13 -6 -21 -8 -11 -8 -14 0 -9 6 4 14 3 18 -2 3 -6 -6 -8 -21 -5 -16 3
-23 1 -19 -6 3 -5 -1 -10 -10 -10 -9 0 -14 -4 -11 -9 6 -10 -24 -25 -32 -16
-3 3 0 5 7 5 7 0 10 4 6 9 -3 6 3 14 12 20 10 6 13 11 6 11 -6 0 -18 -9 -26
-20 -8 -11 -18 -17 -23 -12 -4 4 -3 0 4 -9 6 -9 9 -19 5 -23 -4 -4 1 -4 12 0
11 4 17 4 14 0 -12 -13 -52 -16 -66 -5 -7 7 -13 8 -13 4 0 -4 8 -14 18 -21 13
-10 14 -12 2 -11 -8 2 -21 7 -29 11 -9 6 -12 5 -7 -2 3 -5 3 -12 -1 -15 -5 -2
-3 -2 4 -1 14 3 27 -12 15 -18 -4 -1 -17 -16 -30 -32 -12 -16 -22 -26 -22 -23
0 4 -13 -6 -29 -21 -15 -15 -26 -31 -23 -36 3 -5 0 -6 -6 -2 -7 4 -12 1 -12
-8 0 -9 -6 -16 -14 -16 -7 0 -19 -7 -26 -15 -7 -8 -17 -12 -23 -8 -6 3 -7 1
-3 -5 4 -7 2 -12 -5 -12 -7 0 -10 -3 -6 -6 3 -3 19 4 36 17 17 12 33 20 37 17
3 -4 -4 -9 -15 -13 -12 -3 -21 -13 -21 -21 0 -8 -5 -14 -11 -14 -6 0 -9 -6 -6
-14 4 -9 -2 -12 -23 -10 -22 3 -30 -1 -35 -16 -4 -11 -11 -20 -16 -20 -5 0 -9
-6 -9 -12 1 -7 11 0 24 16 15 18 26 24 30 17 4 -6 2 -11 -4 -11 -7 0 -10 -7
-6 -15 3 -8 2 -14 -2 -14 -20 3 -25 -2 -12 -12 12 -8 8 -9 -15 -6 -27 5 -28 4
-11 -9 15 -10 16 -16 8 -27 -7 -8 -9 -17 -5 -20 3 -4 1 -7 -6 -7 -10 0 -28
-32 -29 -53 0 -4 -8 -19 -17 -33 -9 -14 -14 -28 -11 -32 3 -3 0 -15 -8 -28 -8
-12 -16 -32 -18 -45 -2 -13 -7 -30 -11 -36 -5 -7 -5 -13 -1 -13 4 0 0 -8 -10
-18 -9 -11 -16 -27 -15 -38 4 -35 -1 -55 -11 -49 -6 3 -10 1 -10 -4 0 -6 5
-11 10 -11 6 0 10 -5 10 -11 0 -5 -4 -7 -10 -4 -5 3 -10 1 -10 -4 0 -6 5 -11
11 -11 5 0 7 -5 3 -12 -5 -8 -11 -6 -20 7 -12 16 -13 16 -11 -3 0 -11 6 -20
12 -19 12 2 14 -45 1 -54 -5 -4 -4 -20 2 -38 8 -21 8 -30 1 -25 -6 3 -10 -2
-9 -12 4 -32 1 -35 -23 -24 -21 11 -21 10 -3 -4 11 -9 23 -16 28 -16 4 0 5 -7
2 -15 -3 -8 -9 -13 -12 -12 -4 1 -7 -2 -7 -8 0 -5 4 -9 10 -7 7 1 12 -14 13
-35 0 -21 4 -54 7 -73 5 -32 13 -95 17 -127 1 -7 4 -13 8 -13 4 0 7 -17 8 -37
1 -20 7 -40 14 -45 9 -6 7 -8 -6 -6 -10 2 -21 -3 -23 -10 -4 -9 3 -11 24 -6
26 6 27 5 9 -8 -15 -12 -17 -18 -7 -36 9 -16 9 -28 1 -44 -9 -20 -9 -21 2 -7
18 22 47 20 43 -2 -2 -10 5 -28 16 -40 22 -26 23 -31 7 -48 -11 -11 -10 -13 5
-8 11 4 17 1 17 -8 0 -8 5 -15 11 -15 5 0 8 -4 5 -9 -4 -5 0 -12 6 -15 9 -3 7
-10 -7 -21 -20 -17 -19 -17 5 -10 23 7 24 7 10 -10 -9 -11 -10 -16 -2 -11 6 4
12 3 12 -3 0 -5 -5 -13 -10 -16 -6 -4 -8 -11 -4 -16 3 -5 10 -7 15 -3 5 3 7 9
4 14 -3 5 -1 12 5 15 6 4 9 1 8 -7 -2 -7 4 -12 12 -10 11 2 11 -1 -3 -12 -16
-12 -16 -14 -2 -20 9 -3 13 -11 9 -17 -4 -7 1 -7 16 1 20 11 21 10 15 -11 -6
-18 -4 -21 10 -15 16 6 16 4 4 -11 -9 -11 -10 -14 -2 -9 13 7 46 -5 44 -17 -3
-21 1 -27 15 -27 8 0 13 -4 9 -9 -3 -5 4 -12 15 -16 11 -3 20 -13 20 -21 0 -9
5 -12 11 -8 8 4 8 0 0 -15 -13 -24 -23 -28 -19 -7 2 8 -17 32 -40 54 -24 23
-41 46 -37 51 3 6 4 11 1 11 -3 0 -10 -9 -16 -20 -6 -11 -7 -19 -3 -18 5 2 19
-7 33 -19 13 -13 28 -23 32 -23 5 0 6 -5 3 -10 -4 -6 -1 -9 6 -8 7 2 13 -4 14
-12 0 -20 6 -23 28 -14 10 4 23 2 29 -4 7 -7 5 -10 -7 -9 -10 1 -20 -5 -22
-13 -4 -13 -3 -13 5 -1 9 12 14 12 34 -1 53 -35 84 -72 57 -66 -6 2 -14 -4
-16 -12 -3 -9 -1 -11 4 -5 7 10 15 11 51 7 6 -1 12 -7 12 -13 0 -6 -9 -8 -21
-4 -19 6 -20 5 -8 -8 13 -14 16 -13 32 0 10 10 17 12 17 5 0 -7 7 -12 16 -12
8 0 12 -5 9 -10 -3 -6 1 -10 9 -10 9 0 21 -9 28 -19 7 -11 18 -17 27 -13 13 4
13 2 -1 -15 -25 -28 -22 -37 3 -12 l20 20 25 -28 c13 -15 22 -33 20 -39 -2 -6
2 -11 10 -11 12 0 11 5 -2 25 -8 13 -13 26 -10 30 3 3 6 1 6 -4 0 -5 25 -20
55 -34 54 -24 67 -41 43 -56 -8 -5 -9 -2 -4 12 4 10 3 15 -1 10 -12 -12 -11
-55 2 -53 5 1 9 -3 8 -9 -1 -7 6 -10 17 -7 11 3 21 0 21 -6 1 -6 2 -17 3 -23
1 -7 -8 -16 -19 -20 -17 -5 -15 -6 8 -7 15 -1 35 -9 46 -20 18 -18 18 -19 0
-32 -18 -13 -17 -14 13 -30 37 -19 50 -16 42 9 -5 14 -4 14 6 -1 9 -14 9 -22
1 -30 -6 -6 -11 -16 -11 -21 0 -6 6 -2 12 9 11 18 12 19 18 0 8 -23 46 -27 63
-6 10 14 10 14 -4 3 -14 -10 -18 -10 -22 2 -5 11 3 14 34 11 49 -4 56 -9 38
-32 -12 -15 -12 -16 1 -8 8 5 21 10 27 11 7 1 20 9 29 18 8 9 20 16 26 16 6 0
8 3 5 6 -4 4 15 17 42 29 27 13 52 28 55 34 4 6 12 9 17 6 5 -4 9 -1 9 4 0 6
5 11 11 11 5 0 8 -4 5 -9 -3 -5 2 -15 11 -22 9 -8 14 -9 10 -2 -4 6 -1 14 5
16 10 4 10 6 1 6 -7 1 -13 6 -13 12 0 5 5 7 12 3 7 -5 9 -2 5 9 -4 11 -2 14 9
10 7 -3 14 0 14 5 0 6 8 10 18 10 9 0 26 3 37 8 18 7 19 6 6 -10 -8 -10 -23
-15 -33 -13 -10 3 -16 1 -13 -4 6 -9 56 -9 51 1 -2 3 5 13 15 24 17 18 19 18
45 -10 20 -22 24 -24 15 -7 -14 27 -14 36 -1 28 6 -4 17 -1 25 5 8 7 15 10 15
6 0 -3 11 -1 25 4 19 7 23 6 18 -5 -3 -8 -9 -12 -14 -9 -5 3 -6 -3 -2 -12 4
-12 8 -14 11 -6 3 10 7 10 18 1 9 -7 14 -8 14 -1 0 6 -4 12 -10 14 -6 2 -6 9
0 18 7 12 11 10 19 -10 7 -18 10 -20 10 -7 1 9 6 17 12 17 5 0 7 5 4 10 -5 9
15 15 38 11 4 -1 18 4 29 10 12 7 31 13 43 14 11 1 24 3 28 4 5 0 5 7 1 14 -4
6 2 4 13 -6 21 -18 22 -18 32 1 6 11 7 22 4 26 -6 6 23 9 30 4 2 -2 11 3 20
11 10 7 17 10 17 5 0 -5 5 -2 10 6 8 13 10 12 10 -4 0 -12 -5 -16 -16 -12 -8
3 -12 2 -9 -4 7 -11 41 -8 52 5 5 4 2 5 -4 1 -9 -5 -13 0 -13 15 0 21 1 22 20
4 11 -10 20 -13 20 -7 0 6 -6 13 -12 15 -10 4 -10 8 2 16 8 5 18 7 24 4 5 -4
7 0 4 8 -4 10 3 14 21 16 23 1 24 0 8 -12 -17 -12 -17 -13 0 -19 10 -4 14 -4
10 0 -8 8 11 34 25 34 5 0 6 -6 2 -12 -4 -7 -3 -10 1 -5 5 4 10 18 12 30 2 17
1 19 -6 7 -6 -8 -14 -11 -18 -6 -4 5 -3 11 4 13 6 2 21 13 34 24 21 18 23 18
43 2 20 -17 20 -17 7 -1 -11 15 -11 21 0 34 12 14 14 14 26 -2 16 -21 17 -11
3 17 -7 11 -7 19 -1 19 5 0 16 3 25 6 9 3 16 1 16 -6 0 -6 -4 -9 -9 -5 -5 3
-12 1 -15 -4 -4 -5 -2 -12 3 -15 5 -4 12 -2 16 4 4 6 11 7 17 4 6 -4 6 1 -1
14 -13 25 -14 32 -2 32 5 0 12 -8 14 -18 4 -13 5 -11 6 6 0 12 -5 22 -11 22
-9 0 -8 3 2 10 10 6 20 4 32 -7 11 -10 18 -12 18 -5 0 7 -4 12 -10 12 -16 0
-12 30 5 36 8 4 15 12 15 19 0 16 35 29 52 20 7 -4 5 0 -4 8 -17 13 -16 15 5
35 25 23 37 28 37 14 0 -5 -9 -13 -21 -18 -19 -9 -20 -11 -5 -23 14 -12 16
-12 10 4 -5 12 -4 16 3 12 13 -8 25 17 17 37 -7 19 35 86 54 86 8 0 12 3 9 6
-3 4 5 15 18 26 14 11 25 24 25 30 0 6 -8 1 -19 -10 -25 -30 -36 -28 -14 3 23
31 43 32 44 3 1 -20 2 -21 6 -4 3 12 -2 25 -13 33 -10 7 -13 13 -7 13 10 0 27
36 24 53 -1 4 6 10 15 14 13 5 13 7 2 14 -10 7 -9 9 4 9 11 0 16 6 13 18 -1 9
5 28 15 40 18 21 19 21 17 3 0 -11 -5 -17 -11 -14 -5 4 -6 1 -1 -7 6 -9 4 -11
-4 -5 -10 6 -11 3 -2 -12 12 -24 -13 -68 -32 -57 -7 4 -8 3 -4 -1 4 -5 15 -10
23 -11 9 -1 13 0 10 3 -3 3 4 19 16 36 12 17 17 27 10 23 -7 -4 -12 -3 -12 3
0 5 8 15 18 20 10 6 12 11 4 11 -7 0 -10 5 -6 12 4 6 -1 17 -11 25 -18 12 -18
13 -1 13 13 0 16 5 12 16 -4 10 1 25 11 36 16 18 16 19 -3 12 -14 -4 -15 -3
-5 4 7 5 10 15 7 21 -4 6 -2 11 3 11 6 0 11 -5 11 -12 0 -6 3 -8 6 -5 4 4 1
14 -7 24 -11 13 -11 15 -1 9 16 -10 13 25 -3 36 -6 4 -2 8 8 8 14 0 17 5 12
19 -3 11 -1 23 6 26 8 6 7 10 -2 16 -10 6 -10 9 -2 9 7 0 10 7 7 18 -5 14 -4
14 4 2 6 -8 9 -17 6 -21 -2 -4 0 -10 5 -14 13 -8 5 33 -10 51 -9 11 -8 14 5
14 9 0 16 -5 16 -12 0 -6 2 -9 5 -6 8 8 -6 39 -14 33 -4 -2 -8 32 -7 75 0 72
2 79 18 74 10 -3 18 -1 18 5 0 6 -3 10 -7 10 -22 -4 -29 4 -30 36 0 19 2 33 6
31 4 -3 12 4 19 15 7 11 8 19 2 19 -5 0 -10 -4 -10 -10 0 -5 -5 -10 -11 -10
-6 0 -8 9 -4 21 4 12 3 19 -1 16 -5 -3 -10 5 -10 18 -1 18 2 22 15 18 9 -3 6
2 -7 11 -12 10 -20 21 -17 26 8 13 -6 41 -17 34 -6 -4 -5 3 1 15 10 18 15 20
34 11 20 -10 20 -10 5 3 -10 8 -15 17 -11 21 4 4 -2 9 -14 12 -23 6 -37 42
-26 70 4 11 3 15 -4 11 -6 -4 -13 -1 -16 7 -9 23 5 27 26 9 20 -18 20 -18 2 9
-9 15 -20 26 -24 24 -4 -3 -12 8 -18 25 -8 20 -8 31 -1 36 7 3 8 1 4 -5 -5 -8
-1 -10 10 -5 11 4 13 8 6 11 -7 2 -9 9 -5 15 4 7 -1 6 -11 -2 -15 -13 -19 -13
-26 -1 -6 9 -4 20 5 30 8 9 11 21 6 29 -6 9 -11 10 -15 2 -4 -6 -2 -11 4 -11
6 0 8 -4 5 -10 -10 -17 -25 -11 -25 10 0 11 -4 20 -10 20 -5 0 -10 9 -10 21 0
14 5 19 14 16 10 -4 13 -1 9 9 -4 11 -9 12 -19 3 -10 -8 -18 -7 -31 6 -16 17
-16 17 4 11 12 -4 24 -2 28 3 4 7 -1 8 -12 4 -16 -6 -17 -5 -3 13 11 15 11 16
0 7 -19 -18 -35 -16 -20 2 14 17 4 39 -16 31 -8 -3 -14 1 -14 10 0 8 -4 12
-10 9 -5 -3 -10 1 -10 10 0 10 -5 13 -12 9 -7 -4 -10 -4 -6 0 7 8 -4 25 -34
53 -9 9 -15 20 -12 25 8 13 24 9 24 -5 0 -8 10 -23 23 -35 21 -20 23 -20 23
-3 0 11 -6 17 -13 14 -7 -3 -17 7 -23 22 -8 21 -14 25 -31 20 -15 -5 -22 -2
-26 13 -3 14 -10 19 -21 15 -10 -4 -13 -2 -8 5 3 6 -3 16 -14 22 -11 6 -20 17
-20 24 0 8 -8 31 -17 52 -9 22 -16 43 -15 47 2 5 -2 6 -7 3 -5 -4 -1 -24 11
-47 10 -23 17 -43 15 -46 -3 -2 -8 4 -11 14 -3 10 -18 26 -33 35 -16 10 -44
32 -63 50 -20 18 -39 34 -43 35 -12 3 -23 10 -12 7 6 -1 12 7 12 17 1 10 -3
19 -8 19 -6 0 -7 -4 -4 -10 3 -5 -1 -10 -10 -10 -12 0 -15 5 -11 16 5 13 3 14
-7 6 -8 -7 -18 -7 -27 -2 -8 6 -12 10 -7 11 4 1 12 3 17 4 6 1 15 3 20 4 6 0
10 6 10 12 0 8 -4 8 -13 0 -10 -8 -17 -7 -27 2 -8 8 -11 8 -7 1 8 -13 -11 -23
-30 -17 -7 3 -13 9 -13 15 0 6 6 6 15 -2 8 -7 15 -8 15 -4 0 5 -9 15 -21 22
-15 10 -19 10 -14 1 5 -7 3 -10 -6 -7 -8 3 -14 16 -13 31 0 14 -4 23 -9 20 -4
-3 -6 -11 -3 -19 3 -7 1 -16 -4 -19 -6 -4 -10 -1 -10 5 0 6 -13 16 -30 21 -16
6 -30 15 -30 21 0 5 4 7 9 3 5 -3 12 -1 15 4 13 21 -14 20 -28 -1 -9 -12 -16
-17 -16 -11 0 7 -6 10 -13 7 -8 -3 -20 2 -27 10 -7 9 -16 13 -21 11 -4 -3 -25
4 -46 15 -21 11 -46 20 -55 20 -10 0 -18 6 -18 13 0 8 -4 7 -10 -3 -8 -13 -10
-12 -10 3 0 9 -5 17 -11 17 -6 0 -9 -7 -5 -15 5 -13 2 -13 -19 1 -14 9 -25 12
-25 8 0 -5 -5 -1 -11 9 -5 9 -15 17 -22 17 -7 0 -6 -4 3 -10 11 -8 9 -9 -10
-5 -14 3 -52 7 -85 9 -33 1 -71 8 -84 15 -13 7 -21 9 -18 4 3 -5 -18 -9 -48
-9 -30 0 -52 3 -49 8 3 4 -3 5 -12 1 -13 -5 -15 -3 -9 8 8 12 6 12 -8 0 -19
-15 -23 -26 -5 -15 6 4 8 3 5 -3 -3 -5 -28 -9 -54 -8 -26 1 -52 -3 -56 -9 -5
-6 -6 -3 -2 9 3 11 3 16 -1 12 -4 -4 -13 1 -21 11 -13 15 -13 15 -4 -5z m1361
-633 c0 -5 -7 -10 -16 -10 -8 0 -12 5 -9 10 3 6 10 10 16 10 5 0 9 -4 9 -10z
m155 -400 c-3 -5 -10 -10 -16 -10 -5 0 -9 5 -9 10 0 6 7 10 16 10 8 0 12 -4 9
-10z m-2540 -720 c-3 -5 -1 -10 4 -10 6 0 11 -8 11 -17 -1 -16 -2 -16 -15 1
-18 23 -19 36 -4 36 5 0 7 -4 4 -10z m175 -314 c0 -11 -19 -15 -25 -6 -3 5 1
10 9 10 9 0 16 -2 16 -4z m1570 -492 c0 -8 -5 -12 -10 -9 -6 4 -8 11 -5 16 9
14 15 11 15 -7z m-986 -25 c-3 -6 0 -15 7 -20 8 -5 10 -9 4 -9 -5 0 -17 5 -25
10 -13 9 -13 11 0 20 20 13 23 12 14 -1z m96 -169 c10 -18 9 -19 -14 -8 -14 6
-23 15 -20 19 9 15 23 10 34 -11z m199 -39 c-27 -21 -35 -20 -25 4 3 9 10 14
15 10 5 -3 13 0 16 6 4 5 9 8 12 5 3 -3 -5 -14 -18 -25z m-136 4 c4 -8 2 -17
-2 -20 -5 -2 -11 4 -14 15 -6 23 8 27 16 5z"/>
<path d="M1340 2920 c0 -5 5 -10 11 -10 5 0 7 5 4 10 -3 6 -8 10 -11 10 -2 0
-4 -4 -4 -10z"/>
<path d="M1373 2914 c0 -8 4 -14 9 -14 4 0 8 5 8 11 0 5 6 7 13 3 6 -4 8 -3 4
1 -13 15 -34 14 -34 -1z"/>
<path d="M1680 2920 c-8 -5 -12 -12 -9 -15 4 -3 12 1 19 10 14 17 11 19 -10 5z"/>
<path d="M1726 2918 c3 -4 -3 -8 -12 -8 -10 0 -15 -3 -11 -6 7 -8 47 5 47 15
0 4 -7 8 -15 8 -8 0 -12 -4 -9 -9z"/>
<path d="M1761 2917 c2 -1 13 -9 24 -17 19 -14 19 -14 6 3 -7 9 -18 17 -24 17
-6 0 -8 -1 -6 -3z"/>
<path d="M1205 2894 c-8 -6 -15 -15 -15 -19 0 -5 9 0 19 9 15 13 20 14 24 4 4
-10 6 -10 6 1 1 11 4 11 18 0 9 -8 14 -9 10 -2 -4 7 0 13 10 16 10 2 1 4 -19
3 -21 0 -44 -6 -53 -12z"/>
<path d="M1810 2889 c0 -5 5 -7 10 -4 6 3 10 8 10 11 0 2 -4 4 -10 4 -5 0 -10
-5 -10 -11z"/>
<path d="M1135 2879 c-4 -6 -5 -12 -2 -15 2 -3 7 2 10 11 7 17 1 20 -8 4z"/>
<path d="M1879 2878 c14 -19 32 -15 30 5 0 8 -2 8 -6 -1 -4 -10 -8 -10 -21 0
-15 12 -16 11 -3 -4z"/>
<path d="M1076 2858 c3 -5 10 -6 15 -3 13 9 11 12 -6 12 -8 0 -12 -4 -9 -9z"/>
<path d="M1107 2857 c-3 -8 1 -14 8 -14 7 0 11 6 8 14 -3 7 -6 13 -8 13 -2 0
-5 -6 -8 -13z"/>
<path d="M1913 2856 c-3 -6 -3 -8 2 -4 4 4 14 3 22 -3 10 -9 13 -8 13 0 0 7 5
9 13 5 6 -4 9 -3 4 1 -11 13 -47 13 -54 1z"/>
<path d="M1986 2838 c5 -8 1 -9 -10 -5 -10 4 -15 3 -11 -3 8 -13 18 -13 39 3
16 12 16 13 -4 14 -13 1 -18 -2 -14 -9z"/>
<path d="M2015 2821 c-3 -2 -2 -7 0 -11 6 -9 45 -1 45 9 0 7 -38 9 -45 2z"/>
<path d="M961 2811 c-8 -5 -9 -11 -3 -15 5 -3 12 1 16 9 6 17 6 18 -13 6z"/>
<path d="M933 2791 c0 -11 5 -18 9 -15 4 3 5 11 1 19 -7 21 -12 19 -10 -4z"/>
<path d="M2100 2786 c0 -2 7 -6 15 -10 8 -3 15 -1 15 4 0 6 -7 10 -15 10 -8 0
-15 -2 -15 -4z"/>
<path d="M845 2760 c-3 -5 -1 -10 4 -10 6 0 11 5 11 10 0 6 -2 10 -4 10 -3 0
-8 -4 -11 -10z"/>
<path d="M865 2739 c-4 -6 -12 -8 -19 -6 -6 3 -27 -4 -46 -14 -19 -10 -31 -18
-27 -19 4 0 21 7 36 15 16 8 31 12 34 9 3 -4 16 1 29 10 12 9 17 16 11 16 -7
0 -15 -5 -18 -11z"/>
<path d="M717 2676 c-4 -10 -1 -13 8 -9 8 3 12 9 9 14 -7 12 -11 11 -17 -5z"/>
<path d="M2313 2670 c-1 -11 3 -20 8 -20 6 0 7 -5 3 -12 -4 -7 -3 -8 5 -4 9 6
9 11 -1 23 -7 9 -11 18 -10 20 2 3 2 6 0 8 -2 2 -4 -5 -5 -15z"/>
<path d="M2340 2626 c0 -2 7 -9 15 -16 9 -7 15 -8 15 -2 0 5 -7 12 -15 16 -8
3 -15 4 -15 2z"/>
<path d="M2380 2603 c0 -5 10 -18 23 -29 l22 -19 -20 25 c-11 14 -21 27 -22
29 -2 2 -3 0 -3 -6z"/>
<path d="M2456 2567 c3 -10 9 -15 12 -12 3 3 0 11 -7 18 -10 9 -11 8 -5 -6z"/>
<path d="M569 2526 c10 -11 8 -17 -6 -25 -10 -6 -13 -11 -7 -11 11 0 34 20 34
31 0 4 -7 10 -16 13 -14 5 -15 4 -5 -8z"/>
<path d="M2485 2520 c10 -11 20 -20 23 -20 3 0 -3 9 -13 20 -10 11 -20 20 -23
20 -3 0 3 -9 13 -20z"/>
<path d="M540 2520 c0 -5 5 -10 11 -10 5 0 7 5 4 10 -3 6 -8 10 -11 10 -2 0
-4 -4 -4 -10z"/>
<path d="M2470 2502 c0 -4 9 -13 20 -20 11 -7 20 -9 20 -4 0 4 -9 13 -20 20
-11 7 -20 9 -20 4z"/>
<path d="M523 2482 c-8 -14 -8 -19 1 -19 7 0 13 9 13 19 1 10 1 18 0 18 -1 0
-7 -8 -14 -18z"/>
<path d="M2530 2461 c0 -5 7 -12 16 -15 14 -5 15 -4 4 9 -14 17 -20 19 -20 6z"/>
<path d="M485 2450 c3 -6 1 -10 -6 -10 -7 0 -10 -3 -6 -6 3 -3 13 -2 22 4 16
8 16 9 1 15 -10 4 -15 3 -11 -3z"/>
<path d="M397 2329 c7 -7 15 -10 18 -7 3 3 -2 9 -12 12 -14 6 -15 5 -6 -5z"/>
<path d="M2628 2333 c7 -3 16 -2 19 1 4 3 -2 6 -13 5 -11 0 -14 -3 -6 -6z"/>
<path d="M333 2198 c-1 -11 1 -16 5 -12 4 5 11 12 15 15 5 3 2 9 -5 12 -9 3
-14 -3 -15 -15z"/>
<path d="M2706 2178 c3 -4 11 -5 19 -1 21 7 19 12 -4 10 -11 0 -18 -5 -15 -9z"/>
<path d="M309 2163 c-1 -5 -2 -15 -3 -23 0 -8 -6 -14 -13 -13 -6 1 -13 -3 -16
-10 -3 -7 3 -13 13 -13 10 0 17 4 14 7 -2 4 1 11 7 14 5 4 8 13 5 20 -3 8 0
16 7 19 9 3 9 5 0 5 -7 1 -14 -2 -14 -6z"/>
<path d="M2740 2120 c-9 -6 -10 -10 -3 -10 6 0 15 5 18 10 8 12 4 12 -15 0z"/>
<path d="M266 2078 c3 -4 11 -5 19 -1 21 7 19 12 -4 10 -11 0 -18 -5 -15 -9z"/>
<path d="M254 2062 c3 -6 2 -14 -4 -17 -8 -5 -8 -11 0 -20 8 -10 7 -14 -2 -18
-9 -4 -9 -6 -1 -6 16 -1 26 16 13 24 -8 5 -8 11 0 20 8 10 8 15 -1 21 -7 4 -9
3 -5 -4z"/>
<path d="M2765 2060 c-3 -6 1 -7 9 -4 18 7 21 14 7 14 -6 0 -13 -4 -16 -10z"/>
<path d="M2780 2046 c0 -2 8 -10 18 -17 15 -13 16 -12 3 4 -13 16 -21 21 -21
13z"/>
<path d="M240 1980 c-8 -5 -12 -11 -9 -14 2 -3 11 -1 19 4 8 5 12 11 9 14 -2
3 -11 1 -19 -4z"/>
<path d="M2790 1941 c0 -13 29 -35 37 -28 3 4 -2 9 -11 13 -9 3 -13 10 -10 15
3 5 0 9 -5 9 -6 0 -11 -4 -11 -9z"/>
<path d="M230 1919 c0 -5 5 -7 10 -4 6 3 10 8 10 11 0 2 -4 4 -10 4 -5 0 -10
-5 -10 -11z"/>
<path d="M204 1844 c-18 -14 -18 -15 4 -4 12 6 22 13 22 15 0 8 -5 6 -26 -11z"/>
<path d="M2820 1830 c6 -11 12 -20 14 -20 2 0 2 9 -1 20 -3 11 -9 20 -15 20
-5 0 -4 -9 2 -20z"/>
<path d="M185 1731 c-3 -5 0 -13 6 -17 7 -4 9 -3 5 4 -3 5 0 13 6 15 9 4 10 6
1 6 -6 1 -14 -3 -18 -8z"/>
<path d="M175 1681 c0 -15 5 -28 12 -28 8 0 9 6 3 17 -5 10 -7 20 -4 23 3 3 1
7 -3 10 -5 3 -9 -7 -8 -22z"/>
<path d="M2852 1657 c-8 -9 -8 -17 0 -27 8 -12 9 -12 4 2 -3 10 2 22 12 27 9
6 12 11 6 11 -6 0 -16 -6 -22 -13z"/>
<path d="M180 1620 c6 -11 13 -20 16 -20 2 0 0 9 -6 20 -6 11 -13 20 -16 20
-2 0 0 -9 6 -20z"/>
<path d="M2846 1566 c7 -19 20 -21 30 -3 4 6 4 9 -1 5 -4 -4 -14 -3 -22 4 -11
8 -12 7 -7 -6z"/>
<path d="M2843 1523 c0 -9 4 -10 14 -2 7 6 13 12 13 14 0 1 -6 2 -13 2 -8 0
-14 -6 -14 -14z"/>
<path d="M180 1505 c-7 -9 -8 -15 -2 -15 5 0 12 7 16 15 3 8 4 15 2 15 -2 0
-9 -7 -16 -15z"/>
<path d="M2850 1496 c-6 -9 -10 -21 -7 -28 4 -9 6 -7 6 4 1 9 7 18 14 21 6 2
9 7 6 11 -3 4 -12 0 -19 -8z"/>
<path d="M175 1440 c-4 -6 1 -7 12 -3 16 6 17 5 3 -13 -14 -18 -14 -18 3 -5 9
7 17 17 17 22 0 12 -27 11 -35 -1z"/>
<path d="M199 1408 c-7 -23 -5 -37 4 -31 6 4 8 0 4 -10 -3 -9 -3 -18 1 -21 4
-3 8 4 9 14 1 11 -3 22 -8 25 -5 4 -7 11 -4 16 4 5 4 9 1 9 -3 0 -6 -1 -7 -2z"/>
<path d="M2826 1341 c-4 -5 3 -7 14 -4 23 6 26 13 6 13 -8 0 -17 -4 -20 -9z"/>
<path d="M2825 1299 c-4 -6 -5 -12 -2 -15 2 -3 7 2 10 11 7 17 1 20 -8 4z"/>
<path d="M215 1280 c3 -5 11 -10 16 -10 6 0 7 5 4 10 -3 6 -11 10 -16 10 -6 0
-7 -4 -4 -10z"/>
<path d="M219 1237 c6 -8 7 -18 3 -22 -4 -5 -1 -5 6 -1 10 6 10 11 1 22 -6 8
-14 14 -16 14 -3 0 0 -6 6 -13z"/>
<path d="M2789 1183 c-13 -16 -12 -17 4 -4 9 7 17 15 17 17 0 8 -8 3 -21 -13z"/>
<path d="M279 1088 c-5 -17 -4 -46 3 -42 4 3 8 0 8 -7 0 -7 3 -10 6 -7 3 4 1
15 -5 26 -8 15 -8 22 2 25 9 4 9 6 0 6 -7 1 -13 0 -14 -1z"/>
<path d="M310 1031 c0 -6 4 -13 10 -16 6 -3 7 1 4 9 -7 18 -14 21 -14 7z"/>
<path d="M296 1007 c3 -10 9 -15 12 -12 3 3 0 11 -7 18 -10 9 -11 8 -5 -6z"/>
<path d="M2700 979 c0 -5 5 -7 10 -4 6 3 10 8 10 11 0 2 -4 4 -10 4 -5 0 -10
-5 -10 -11z"/>
<path d="M325 965 c11 -9 19 -19 17 -23 -2 -4 4 -8 13 -8 13 -2 13 -1 0 3 -8
2 -13 8 -10 13 3 5 -5 14 -17 20 -22 11 -22 11 -3 -5z"/>
<path d="M2708 953 c7 -3 16 -2 19 1 4 3 -2 6 -13 5 -11 0 -14 -3 -6 -6z"/>
<path d="M2659 873 c-13 -16 -12 -17 4 -4 16 13 21 21 13 21 -2 0 -10 -8 -17
-17z"/>
<path d="M2615 840 c3 -5 -3 -18 -14 -29 -19 -19 -19 -20 -1 -18 10 1 18 4 18
7 -2 27 2 32 19 19 15 -13 15 -12 2 9 -8 12 -17 22 -22 22 -4 0 -6 -4 -2 -10z"/>
<path d="M2495 690 c-3 -5 -3 -14 0 -20 3 -5 -1 -10 -9 -10 -9 0 -16 -4 -16
-10 0 -14 2 -13 40 15 19 14 29 25 24 25 -6 0 -16 -6 -23 -12 -11 -11 -13 -10
-8 5 7 19 2 23 -8 7z"/>
<path d="M600 600 c0 -5 5 -10 10 -10 6 0 10 5 10 10 0 6 -4 10 -10 10 -5 0
-10 -4 -10 -10z"/>
<path d="M630 579 c0 -5 5 -7 12 -3 8 5 9 1 4 -12 -5 -14 -4 -16 5 -7 6 6 8
16 5 22 -9 14 -26 14 -26 0z"/>
<path d="M2330 536 c0 -2 7 -9 15 -16 13 -11 14 -10 9 4 -5 14 -24 23 -24 12z"/>
<path d="M2295 510 c-3 -5 -2 -17 3 -26 8 -14 10 -12 10 9 0 29 -3 33 -13 17z"/>
<path d="M734 498 c-5 -7 -3 -8 6 -3 9 6 12 4 8 -7 -4 -8 0 -15 7 -15 10 0 11
5 4 19 -11 21 -15 22 -25 6z"/>
<path d="M780 465 c-7 -9 -8 -15 -2 -15 5 0 12 7 16 15 3 8 4 15 2 15 -2 0 -9
-7 -16 -15z"/>
<path d="M801 444 c0 -11 3 -14 6 -6 3 7 2 16 -1 19 -3 4 -6 -2 -5 -13z"/>
<path d="M855 420 c3 -5 11 -10 16 -10 6 0 7 5 4 10 -3 6 -11 10 -16 10 -6 0
-7 -4 -4 -10z"/>
<path d="M2178 418 c5 -5 16 -8 23 -6 8 3 3 7 -10 11 -17 4 -21 3 -13 -5z"/>
<path d="M936 385 c4 -8 11 -15 16 -15 6 0 5 6 -2 15 -7 8 -14 15 -16 15 -2 0
-1 -7 2 -15z"/>
<path d="M974 372 c3 -5 0 -13 -6 -15 -9 -4 -10 -6 -1 -6 17 -1 25 16 12 25
-7 4 -9 3 -5 -4z"/>
<path d="M2055 370 c-4 -6 -5 -10 -3 -11 25 -6 38 -6 38 1 0 12 -29 20 -35 10z"/>
<path d="M2036 333 c-6 -14 -5 -15 5 -6 7 7 10 15 7 18 -3 3 -9 -2 -12 -12z"/>
<path d="M1980 322 c0 -5 7 -9 15 -9 8 0 12 4 9 9 -3 4 -9 8 -15 8 -5 0 -9 -4
-9 -8z"/>
<path d="M1906 304 c-14 -10 -22 -11 -27 -3 -4 7 -8 5 -12 -4 -4 -12 -1 -14
16 -10 12 3 35 6 51 7 16 1 31 8 34 16 3 12 2 12 -6 2 -11 -16 -22 -17 -31 -4
-4 7 -13 5 -25 -4z"/>
<path d="M1735 271 c3 -5 -3 -12 -12 -14 -10 -3 -6 -4 9 -4 21 1 24 4 16 14
-12 15 -22 18 -13 4z"/>
<path d="M1020 260 c0 -5 7 -7 15 -4 8 4 15 8 15 10 0 2 -7 4 -15 4 -8 0 -15
-4 -15 -10z"/>
<path d="M1650 263 c0 -4 5 -15 10 -23 8 -13 10 -13 10 2 0 9 -4 20 -10 23 -5
3 -10 3 -10 -2z"/>
<path d="M1550 220 c0 -5 5 -10 10 -10 6 0 10 5 10 10 0 6 -4 10 -10 10 -5 0
-10 -4 -10 -10z"/>
<path d="M1059 211 c13 -8 13 -12 1 -28 -13 -17 -13 -17 4 -1 19 16 15 38 -7
38 -8 0 -7 -4 2 -9z"/>
<path d="M1464 189 c-3 -6 -1 -15 6 -19 17 -10 42 -1 34 12 -4 6 -10 5 -15 -3
-8 -13 -13 -5 -10 14 2 11 -7 9 -15 -4z"/>
<path d="M1440 160 c8 -5 20 -10 25 -10 6 0 3 5 -5 10 -8 5 -19 10 -25 10 -5
0 -3 -5 5 -10z"/>
<path d="M1410 150 c0 -6 -3 -9 -7 -7 -5 2 -16 -4 -25 -15 -21 -21 -11 -23 16
-3 10 8 23 12 27 9 5 -3 9 -1 9 5 0 5 -4 13 -10 16 -5 3 -10 1 -10 -5z"/>
<path d="M1257 113 c-4 -3 -7 -11 -7 -17 0 -6 5 -5 12 2 6 6 9 14 7 17 -3 3
-9 2 -12 -2z"/>
</g>
</svg>
