<?xml version="1.0" encoding="utf-8"?>
<!-- Generator: Adobe Illustrator 22.1.0, SVG Export Plug-In . SVG Version: 6.00 Build 0)  -->
<svg version="1.1" id="レイヤー_1" xmlns="http://www.w3.org/2000/svg" xmlns:xlink="http://www.w3.org/1999/xlink" x="0px"
	 y="0px" width="99px" height="34px" viewBox="0 0 99 34" style="enable-background:new 0 0 99 34;" xml:space="preserve">
<style type="text/css">
	.st0{fill:#FFFFFF;}
</style>
<g>
	<g>
		<g>
			<path class="st0" d="M21.27695,33.23127h5.01132V0.76876h-5.01132v14.22941H5.01173V0.76876H0v32.46252h5.01173V19.04504
				h16.26522V33.23127z"/>
		</g>
	</g>
	<g>
		<g>
			<path class="st0" d="M37.19102,33.23127h19.55407l3.54678-4.04687H45.91914l7.25208-7.81483
				c2.68678-2.86974,6.02491-6.43412,6.02491-11.35763c0-4.97522-3.87615-10.01193-11.28552-10.01193
				c-6.08817,0-10.52287,3.89011-11.16684,9.73017h5.22447c0.40823-2.88806,2.4535-5.68329,6.25244-5.68329
				c3.4556,0,5.96331,2.52975,5.96331,6.01514c0,2.38724-1.35119,4.75006-2.15697,5.94633
				c-1.12942,1.6808-4.3809,5.40275-5.60519,6.80342l-0.34786,0.39984L37.19102,33.23127z"/>
		</g>
	</g>
	<g>
		<g>
			<path class="st0" d="M82.83006,0.00002c-9.51994,0-16.16911,7.00131-16.16911,17.02586
				c0,9.99401,6.64917,16.97414,16.16911,16.97414C92.35082,34.00002,99,27.01989,99,17.02588
				C99,7.00133,92.35082,0.00002,82.83006,0.00002z M82.83006,29.64614c-6.75021,0-11.465-5.1898-11.465-12.62026
				c0-7.34251,4.82157-12.67198,11.465-12.67198s11.46582,5.32946,11.46582,12.67198
				C94.29588,24.45634,89.58109,29.64614,82.83006,29.64614z"/>
		</g>
	</g>
</g>
</svg>
