<?xml version="1.0" encoding="utf-8"?>
<!-- Generator: Adobe Illustrator 25.0.1, SVG Export Plug-In . SVG Version: 6.00 Build 0)  -->
<svg version="1.1" id="レイヤー_1" xmlns="http://www.w3.org/2000/svg" xmlns:xlink="http://www.w3.org/1999/xlink" x="0px"
	 y="0px" viewBox="0 0 202 23" style="enable-background:new 0 0 202 23;" xml:space="preserve">
<style type="text/css">
	.st0{enable-background:new    ;}
	.st1{fill:#202253;}
</style>
<g class="st0">
	<path class="st1" d="M56.9,3.2h8.5c1.7,0,3,0.4,3.8,1.1c0.9,0.7,1.3,1.7,1.3,2.8c0,0.9-0.3,1.7-0.9,2.4c-0.6,0.6-1.6,1.2-2.8,1.5
		c1.5,0.3,2.7,0.8,3.5,1.5c0.8,0.7,1.2,1.6,1.2,2.6c0,0.8-0.2,1.5-0.7,2.2s-1.2,1.2-2.2,1.6c-1,0.4-2.2,0.7-3.5,0.7h-8.3v-0.8h1.3
		c0.4,0,0.7-0.1,0.9-0.2c0.2-0.1,0.3-0.3,0.3-0.5V5c0-0.3-0.1-0.5-0.3-0.7s-0.5-0.2-0.8-0.2h-1.4V3.2z M61.8,10.7h3.1
		c1,0,1.7-0.3,2.3-0.8C67.7,9.3,68,8.4,68,7.1c0-0.8-0.1-1.4-0.4-1.8c-0.3-0.4-0.7-0.8-1.2-1C65.9,4.1,65,4,63.7,4
		c-0.9,0-1.4,0.1-1.7,0.2c-0.2,0.1-0.3,0.4-0.3,0.7V10.7z M61.8,11.6v6.3c0,0.3,0.1,0.5,0.3,0.7c0.2,0.1,0.5,0.2,0.9,0.2h2
		c1.3,0,2.3-0.3,2.9-0.9c0.6-0.6,0.9-1.5,0.9-2.7c0-1.1-0.3-2-1-2.6c-0.6-0.6-1.5-1-2.7-1H61.8z"/>
	<path class="st1" d="M76.7,3.2h8.4c1.6,0,2.9,0.4,3.8,1.1c0.9,0.7,1.4,1.7,1.4,2.9c0,0.7-0.2,1.4-0.5,1.9c-0.4,0.6-0.9,1-1.5,1.3
		c-0.7,0.3-1.7,0.6-3.2,0.7c1.1,0.3,1.8,0.6,2.2,0.8c0.4,0.3,0.7,0.6,1,1.1s0.5,1.3,0.8,2.7c0.2,1,0.5,1.6,0.7,2
		c0.2,0.3,0.4,0.4,0.6,0.4c0.2,0,0.4-0.2,0.6-0.5c0.2-0.3,0.3-0.9,0.4-1.8h0.8c-0.1,2.5-1.1,3.8-2.8,3.8c-0.5,0-1-0.1-1.4-0.4
		s-0.7-0.7-0.9-1.2c-0.2-0.4-0.3-1.4-0.5-3.1c-0.1-1-0.3-1.7-0.5-2.1c-0.2-0.4-0.6-0.7-1.1-1c-0.5-0.3-1.1-0.4-1.8-0.4h-1.3V18
		c0,0.3,0.1,0.5,0.2,0.6c0.2,0.1,0.5,0.2,0.8,0.2h1.6v0.8h-7.6v-0.8h1.6c0.4,0,0.6-0.1,0.8-0.2c0.2-0.1,0.2-0.3,0.2-0.6V4.9
		c0-0.3-0.1-0.5-0.3-0.6c-0.2-0.1-0.4-0.2-0.8-0.2h-1.6V3.2z M81.7,10.7h1.9c1.3,0,2.3-0.2,3-0.7c0.7-0.5,1.1-1.4,1.1-2.6
		c0-0.9-0.1-1.5-0.4-2s-0.6-0.8-1.1-1c-0.4-0.2-1.3-0.3-2.7-0.3c-0.9,0-1.4,0.1-1.6,0.2s-0.3,0.3-0.3,0.6V10.7z"/>
	<path class="st1" d="M104.4,2.9h0.7l5.9,15c0.2,0.6,0.7,0.9,1.4,0.9h0.5v0.8h-6.5v-0.8h0.5c0.7,0,1.2-0.1,1.4-0.2
		c0.2-0.1,0.3-0.3,0.3-0.5c0-0.1,0-0.3-0.1-0.4l-1.4-3.5h-6.5l-0.8,2c-0.2,0.5-0.3,1-0.3,1.3c0,0.4,0.2,0.7,0.5,0.9s0.8,0.4,1.5,0.4
		h0.6v0.8h-5.9v-0.8c0.6,0,1.1-0.1,1.5-0.4s0.7-0.8,1-1.6L104.4,2.9z M104,6l-2.9,7.3h5.8L104,6z"/>
	<path class="st1" d="M117.7,3.2h3.9l9.9,12.8V6.8c0-0.9-0.2-1.6-0.6-2.1c-0.4-0.4-1-0.6-1.7-0.6V3.2h5.7v0.8c-0.6,0-1,0.1-1.3,0.2
		c-0.3,0.2-0.5,0.5-0.8,0.9s-0.3,0.9-0.3,1.4v13h-1L121.2,6.2v9.9c0,0.9,0.2,1.6,0.7,2s1.1,0.7,2.1,0.7v0.8h-6.2v-0.8
		c0.8,0,1.4-0.3,1.9-0.8c0.5-0.5,0.7-1.1,0.7-1.8V5.1l-0.2-0.2c-0.4-0.4-0.6-0.6-0.8-0.7c-0.2-0.1-0.5-0.2-0.8-0.2h-0.7V3.2z"/>
	<path class="st1" d="M140,3.2h8.4c1.3,0,2.3,0.2,3.2,0.7c1.1,0.6,2,1.5,2.8,2.8s1.1,2.8,1.1,4.6c0,1.5-0.2,2.8-0.7,4
		c-0.3,0.9-0.9,1.7-1.6,2.4c-0.7,0.7-1.6,1.2-2.6,1.5c-0.8,0.3-1.8,0.4-3.1,0.4H140v-0.8h1.5c0.4,0,0.7-0.1,0.8-0.2s0.2-0.3,0.2-0.6
		V4.8c0-0.2-0.1-0.4-0.2-0.5s-0.4-0.2-0.7-0.2H140V3.2z M145.9,4.1c-0.3,0-0.6,0.1-0.7,0.2c-0.2,0.1-0.2,0.3-0.2,0.6v13
		c0,0.3,0.1,0.5,0.3,0.6c0.2,0.1,0.5,0.2,0.9,0.2h1.4c1.2,0,2.3-0.3,3.3-1c0.6-0.4,1.1-1,1.4-1.8c0.4-1,0.7-2.5,0.7-4.3
		c0-2.7-0.5-4.7-1.4-6c-0.8-1.1-2-1.6-3.7-1.6H145.9z"/>
	<path class="st1" d="M171.3,4.5l1-1.4h0.8l0.1,6h-0.7c-0.5-1.8-1.1-3.2-2-4c-0.9-0.8-1.9-1.3-3.1-1.3c-1,0-1.8,0.3-2.4,0.9
		c-0.6,0.6-0.9,1.3-0.9,2.1c0,0.5,0.1,1,0.4,1.4c0.2,0.4,0.6,0.7,1.1,1c0.5,0.2,1.4,0.5,2.6,0.8c1.8,0.4,3.1,0.8,3.8,1.2
		s1.3,0.9,1.6,1.5c0.4,0.6,0.5,1.3,0.5,2.2c0,1.5-0.5,2.7-1.5,3.7c-1,1-2.3,1.5-3.8,1.5c-1.7,0-3.2-0.5-4.4-1.6l-1.2,1.5h-0.8v-6.3
		h0.8c0.3,1.7,1,3.1,2.1,4.1c1.1,1,2.3,1.5,3.6,1.5c1.1,0,2-0.3,2.7-1c0.7-0.6,1-1.4,1-2.3c0-0.5-0.1-1-0.4-1.4
		c-0.3-0.4-0.7-0.7-1.2-1c-0.6-0.3-1.7-0.6-3.3-1c-1.8-0.4-3-0.9-3.7-1.4c-0.9-0.8-1.4-1.8-1.4-3.2c0-1.4,0.5-2.6,1.4-3.5
		s2.1-1.4,3.5-1.4c0.7,0,1.3,0.1,2,0.4C170,3.5,170.6,3.9,171.3,4.5z"/>
</g>
</svg>
