<?xml version="1.0" encoding="utf-8"?>
<!-- Generator: Adobe Illustrator 25.0.0, SVG Export Plug-In . SVG Version: 6.00 Build 0)  -->
<svg version="1.1" id="レイヤー_1" xmlns="http://www.w3.org/2000/svg" xmlns:xlink="http://www.w3.org/1999/xlink" x="0px"
	 y="0px" viewBox="0 0 131.5 34" style="enable-background:new 0 0 131.5 34;" xml:space="preserve">
<style type="text/css">
	.st0{fill:none;}
	.st1{fill:#231815;}
	.st2{fill:#2A0D00;}
	.st3{clip-path:url(#SVGID_2_);}
	.st4{clip-path:url(#SVGID_4_);}
	.st5{fill:url(#SVGID_7_);}
	.st6{fill:url(#SVGID_8_);}
	.st7{fill:url(#SVGID_9_);}
	.st8{fill:url(#SVGID_10_);}
	.st9{fill:url(#SVGID_11_);}
	.st10{fill:url(#SVGID_12_);}
	.st11{fill:url(#SVGID_13_);}
</style>
<g>
	<rect x="17.5" y="24.6" class="st0" width="29" height="7.4"/>
</g>
<g>
	<path class="st1" d="M148.5,99.6c-0.6,0.4-1.4,0.9-2.5,1.2c-4.4,1.2-8.4-1.7-8.6-1.9c-3-2.4-8.2-9-8.5-9.2
		c-0.3-0.1-0.5-0.2-0.5-0.2s0,0-0.1,0c-0.1,0-0.1,0-0.3,0c-0.1,0-0.3,0-0.4,0v5.1c0,1.1,0.1,1.8,0.4,2c0.3,0.4,0.8,0.6,1.5,0.6h0.7
		v0.5h-7.5v-0.6h0.7c0.7,0,1.3-0.2,1.6-0.7c0.2-0.3,0.3-0.9,0.3-1.9V83.4c0-1.1-0.1-1.8-0.4-2c-0.3-0.4-0.8-0.6-1.5-0.6h-0.7v-0.5
		h6.3c1.8,0,3.2,0.1,4.1,0.4c0.9,0.3,1.6,0.8,2.2,1.5c0.6,0.7,0.9,1.6,0.9,2.6c0,1.1-0.3,2-1,2.8c-0.7,0.8-1.8,1.3-3.2,1.7
		c1.9,3,3.8,5,5.1,6.3c1.5,1.4,2.6,2.3,3.9,2.9c1.2,0.6,2.2,0.9,2.4,0.9C145.3,99.9,147.1,99.9,148.5,99.6z M127.7,88.8h0.2
		c0.1,0,0.3,0,0.3,0c1.7,0,2.9-0.4,3.8-1.1c0.8-0.7,1.3-1.6,1.3-2.7s-0.3-2-1-2.6c-0.4-0.3-0.8-0.6-1.3-0.8c-0.5-0.2-1-0.2-1.4-0.2
		c-0.5,0-1.1,0-1.9,0.2C127.7,84,127.7,86.4,127.7,88.8z"/>
	<path class="st1" d="M144.2,81.3v6.9h3.8c1,0,1.7-0.1,2-0.4c0.4-0.4,0.7-1.1,0.7-2.1h0.5v6.1h-0.5c-0.1-0.8-0.2-1.4-0.4-1.6
		c-0.2-0.3-0.4-0.5-0.8-0.7c-0.4-0.2-0.9-0.3-1.6-0.3h-3.8v5.7c0,0.8,0,1.2,0.1,1.4c0.1,0.2,0.2,0.3,0.4,0.4c0.2,0.1,0.5,0.1,1,0.1
		h2.9c1,0,1.7-0.1,2.1-0.2s0.9-0.4,1.3-0.8c0.5-0.5,1.1-1.3,1.6-2.4h0.5l-1.5,4.4h-13.3v-0.6h0.6c0.4,0,0.8-0.1,1.2-0.3
		c0.3-0.1,0.5-0.3,0.6-0.6c0.1-0.3,0.1-0.8,0.1-1.7V83.4c0-1.1-0.1-1.8-0.3-2c-0.3-0.3-0.8-0.5-1.5-0.5h-0.6v-0.6h13.4l0.2,3.8h-0.5
		c-0.2-0.9-0.4-1.5-0.6-1.9c-0.2-0.3-0.5-0.6-1-0.8c-0.3-0.1-0.9-0.2-1.8-0.2L144.2,81.3L144.2,81.3z"/>
	<path class="st1" d="M167.2,80.8v-0.5h6.2v0.5h-0.7c-0.7,0-1.2,0.3-1.6,0.9c-0.1,0.3-0.3,0.9-0.3,1.8v7.1c0,1.7-0.2,3.1-0.5,4.1
		s-1,1.8-2,2.5c-1,0.7-2.4,1-4.1,1c-1.9,0-3.3-0.3-4.3-1c-1-0.7-1.7-1.5-2.1-2.7c-0.3-0.8-0.4-2.2-0.4-4.3v-6.8
		c0-1.1-0.1-1.8-0.4-2.1c-0.3-0.3-0.8-0.5-1.4-0.5h-0.7v-0.5h7.5v0.5h-0.7c-0.7,0-1.2,0.2-1.5,0.7c-0.2,0.3-0.3,0.9-0.3,1.9V91
		c0,0.7,0.1,1.4,0.2,2.3c0.1,0.9,0.3,1.6,0.7,2c0.4,0.4,0.8,0.9,1.4,1.2c0.6,0.3,1.4,0.5,2.3,0.5c1.1,0,2.2-0.2,3.1-0.7
		c0.9-0.5,1.5-1.1,1.8-1.9c0.3-0.8,0.5-2.1,0.5-3.9v-7c0-1.1-0.1-1.8-0.4-2c-0.3-0.4-0.8-0.6-1.5-0.6L167.2,80.8L167.2,80.8z"/>
	<path class="st1" d="M185.7,79.9v6h-0.5c-0.2-1.2-0.4-2.1-0.8-2.8c-0.4-0.7-1-1.2-1.7-1.6s-1.5-0.6-2.3-0.6c-0.9,0-1.6,0.3-2.2,0.8
		c-0.6,0.5-0.9,1.2-0.9,1.9c0,0.5,0.2,1,0.6,1.4c0.5,0.6,1.8,1.5,3.8,2.6c1.6,0.9,2.7,1.5,3.3,2c0.6,0.5,1.1,1,1.4,1.6
		c0.3,0.6,0.5,1.3,0.5,2c0,1.3-0.5,2.5-1.5,3.4s-2.3,1.4-3.8,1.4c-0.5,0-1,0-1.4-0.1c-0.3,0-0.8-0.2-1.6-0.5
		c-0.8-0.3-1.4-0.4-1.6-0.4c-0.2,0-0.4,0.1-0.5,0.2c-0.1,0.1-0.2,0.4-0.3,0.8h-0.5v-6h0.5c0.2,1.2,0.5,2.2,0.9,2.8
		c0.4,0.6,1,1.1,1.7,1.5c0.8,0.4,1.6,0.6,2.5,0.6c1.1,0,1.9-0.3,2.5-0.8c0.6-0.6,0.9-1.2,0.9-2c0-0.4-0.1-0.9-0.4-1.3
		c-0.3-0.4-0.6-0.8-1.1-1.2c-0.3-0.3-1.2-0.8-2.7-1.6s-2.5-1.5-3.2-2c-0.6-0.5-1.1-1-1.4-1.6s-0.5-1.3-0.5-2c0-1.2,0.5-2.3,1.4-3.2
		c1-0.9,2.2-1.4,3.7-1.4c0.9,0,1.9,0.2,2.9,0.7c0.5,0.2,0.8,0.3,1,0.3s0.4-0.1,0.5-0.2c0.1-0.1,0.3-0.4,0.3-0.8L185.7,79.9
		L185.7,79.9L185.7,79.9z"/>
</g>
<path class="st2" d="M33,17.1"/>
<image style="overflow:visible;enable-background:new    ;" width="3625" height="2475" id="image104" xlink:href="74C3C724.png"  transform="matrix(1.093699e-02 0 0 1.093699e-02 64.7637 69.7609)">
</image>
<g id="アートワーク_1_1_">
	<g>
		<defs>
			<rect id="SVGID_1_" x="-1.9" y="-0.4" width="53" height="35.3"/>
		</defs>
		<clipPath id="SVGID_2_">
			<use xlink:href="#SVGID_1_"  style="overflow:visible;"/>
		</clipPath>
		<g class="st3">
			<defs>
				<rect id="SVGID_3_" x="-1.9" y="-0.4" width="53" height="35.3"/>
			</defs>
			<clipPath id="SVGID_4_">
				<use xlink:href="#SVGID_3_"  style="overflow:visible;"/>
			</clipPath>
			<g class="st4">
				<defs>
					<rect id="SVGID_5_" x="-1.9" y="-0.4" width="53" height="35.3"/>
				</defs>
				<clipPath id="SVGID_6_">
					<use xlink:href="#SVGID_5_"  style="overflow:visible;"/>
				</clipPath>
				<g transform="matrix(1 0 0 1 0 0)" style="clip-path:url(#SVGID_6_);">
					
						<image style="overflow:visible;" width="994" height="662" xlink:href="74C3C725.png"  transform="matrix(5.334178e-02 0 0 5.334179e-02 -1.8913 -0.4061)">
					</image>
				</g>
			</g>
		</g>
	</g>
</g>
<g>
	
		<linearGradient id="SVGID_7_" gradientUnits="userSpaceOnUse" x1="41.1796" y1="11.7553" x2="41.1796" y2="29.608" gradientTransform="matrix(1 0 0 -1 0 36)">
		<stop  offset="0" style="stop-color:#F0EEEB"/>
		<stop  offset="0" style="stop-color:#EAE7E3"/>
		<stop  offset="6.363168e-02" style="stop-color:#DCD8D6"/>
		<stop  offset="0.1851" style="stop-color:#B6B1B3"/>
		<stop  offset="0.264" style="stop-color:#9A959A"/>
		<stop  offset="0.5225" style="stop-color:#F9F9F9"/>
		<stop  offset="0.5878" style="stop-color:#EBEAEB"/>
		<stop  offset="0.7133" style="stop-color:#C6C3C5"/>
		<stop  offset="0.8764" style="stop-color:#8E888B"/>
		<stop  offset="1" style="stop-color:#DCDDDD"/>
		<stop  offset="1" style="stop-color:#B5B5B6"/>
	</linearGradient>
	<path class="st5" d="M36.1,6.4h3.5l-2.4,17.8h-3.5L36.1,6.4z M36.5,13.8H43c0.4,0,0.7-0.1,1-0.3c0.3-0.2,0.5-0.4,0.7-0.7
		s0.3-0.7,0.4-1.1c0.1-0.4,0-0.8-0.1-1.1c-0.1-0.3-0.3-0.6-0.5-0.7c-0.3-0.2-0.6-0.3-0.9-0.3H37l0.4-3.2h6.8c1,0,1.9,0.2,2.6,0.7
		C47.5,7.5,48,8.2,48.4,9c0.3,0.8,0.4,1.7,0.3,2.8c-0.1,1.1-0.5,2-1,2.8c-0.5,0.8-1.2,1.4-2.1,1.9c-0.8,0.4-1.8,0.7-2.8,0.7h-6.7
		L36.5,13.8z M40.1,16.5l3.9-0.6l4,8.3h-4.3L40.1,16.5z"/>
	
		<linearGradient id="SVGID_8_" gradientUnits="userSpaceOnUse" x1="58.4109" y1="11.7553" x2="58.4109" y2="29.5953" gradientTransform="matrix(1 0 0 -1 0 36)">
		<stop  offset="0" style="stop-color:#F0EEEB"/>
		<stop  offset="0" style="stop-color:#EAE7E3"/>
		<stop  offset="6.363168e-02" style="stop-color:#DCD8D6"/>
		<stop  offset="0.1851" style="stop-color:#B6B1B3"/>
		<stop  offset="0.264" style="stop-color:#9A959A"/>
		<stop  offset="0.5225" style="stop-color:#F9F9F9"/>
		<stop  offset="0.5878" style="stop-color:#EBEAEB"/>
		<stop  offset="0.7133" style="stop-color:#C6C3C5"/>
		<stop  offset="0.8764" style="stop-color:#8E888B"/>
		<stop  offset="1" style="stop-color:#DCDDDD"/>
		<stop  offset="1" style="stop-color:#B5B5B6"/>
	</linearGradient>
	<path class="st6" d="M53.3,6.4h3.5l-2.3,17.8H51L53.3,6.4z M52.6,21h11.3l-0.4,3.2H52.2L52.6,21z M53.6,13.8h9.9L63.1,17h-9.9
		L53.6,13.8z M54.6,6.4h11.3l-0.4,3.2H54.1L54.6,6.4z"/>
	
		<linearGradient id="SVGID_9_" gradientUnits="userSpaceOnUse" x1="74.3216" y1="11.5717" x2="74.3216" y2="29.7717" gradientTransform="matrix(1 0 0 -1 0 36)">
		<stop  offset="0" style="stop-color:#F0EEEB"/>
		<stop  offset="0" style="stop-color:#EAE7E3"/>
		<stop  offset="6.363168e-02" style="stop-color:#DCD8D6"/>
		<stop  offset="0.1851" style="stop-color:#B6B1B3"/>
		<stop  offset="0.264" style="stop-color:#9A959A"/>
		<stop  offset="0.5225" style="stop-color:#F9F9F9"/>
		<stop  offset="0.5878" style="stop-color:#EBEAEB"/>
		<stop  offset="0.7133" style="stop-color:#C6C3C5"/>
		<stop  offset="0.8764" style="stop-color:#8E888B"/>
		<stop  offset="1" style="stop-color:#DCDDDD"/>
		<stop  offset="1" style="stop-color:#B5B5B6"/>
	</linearGradient>
	<path class="st7" d="M81.4,14.3l-0.5,3.5c-0.2,1.3-0.6,2.5-1.3,3.5c-0.7,1-1.6,1.8-2.7,2.3c-1.1,0.6-2.3,0.8-3.7,0.8
		s-2.5-0.3-3.5-0.8s-1.7-1.3-2.1-2.2c-0.4-1-0.6-2.1-0.4-3.3l0.7-5.3c0.2-1.3,0.6-2.5,1.3-3.5c0.7-1,1.6-1.8,2.7-2.3
		c1.1-0.6,2.3-0.8,3.7-0.8c1.1,0,2.1,0.2,3,0.7c0.8,0.4,1.5,1,2.1,1.8c0.5,0.8,0.8,1.7,0.9,2.8h-3.8c-0.1-0.4-0.2-0.7-0.5-1
		c-0.3-0.3-0.6-0.5-1-0.6s-0.8-0.2-1.2-0.2c-0.6,0-1.2,0.1-1.7,0.4c-0.5,0.3-0.9,0.6-1.3,1.1c-0.3,0.5-0.5,1-0.6,1.7l-0.7,5.3
		c-0.1,0.6,0,1,0.2,1.5c0.2,0.4,0.5,0.8,1,1s1,0.3,1.7,0.3c0.6,0,1.2-0.1,1.7-0.4c0.5-0.2,0.9-0.6,1.2-1.1c0.3-0.5,0.5-1,0.6-1.7
		v-0.3h-2.8l0.4-3.2C74.8,14.3,81.4,14.3,81.4,14.3z"/>
	
		<linearGradient id="SVGID_10_" gradientUnits="userSpaceOnUse" x1="90.0109" y1="11.7553" x2="90.0109" y2="29.5953" gradientTransform="matrix(1 0 0 -1 0 36)">
		<stop  offset="0" style="stop-color:#F0EEEB"/>
		<stop  offset="0" style="stop-color:#EAE7E3"/>
		<stop  offset="6.363168e-02" style="stop-color:#DCD8D6"/>
		<stop  offset="0.1851" style="stop-color:#B6B1B3"/>
		<stop  offset="0.264" style="stop-color:#9A959A"/>
		<stop  offset="0.5225" style="stop-color:#F9F9F9"/>
		<stop  offset="0.5878" style="stop-color:#EBEAEB"/>
		<stop  offset="0.7133" style="stop-color:#C6C3C5"/>
		<stop  offset="0.8764" style="stop-color:#8E888B"/>
		<stop  offset="1" style="stop-color:#DCDDDD"/>
		<stop  offset="1" style="stop-color:#B5B5B6"/>
	</linearGradient>
	<path class="st8" d="M85.9,6.4h3.5l-2.3,17.8h-3.5L85.9,6.4z M85.5,21h11l-0.4,3.2h-11L85.5,21z"/>
	
		<linearGradient id="SVGID_11_" gradientUnits="userSpaceOnUse" x1="105.4109" y1="11.5717" x2="105.4109" y2="30.4236" gradientTransform="matrix(1 0 0 -1 0 36)">
		<stop  offset="0" style="stop-color:#F0EEEB"/>
		<stop  offset="0" style="stop-color:#EAE7E3"/>
		<stop  offset="6.363168e-02" style="stop-color:#DCD8D6"/>
		<stop  offset="0.1851" style="stop-color:#B6B1B3"/>
		<stop  offset="0.264" style="stop-color:#9A959A"/>
		<stop  offset="0.5225" style="stop-color:#F9F9F9"/>
		<stop  offset="0.5878" style="stop-color:#EBEAEB"/>
		<stop  offset="0.7133" style="stop-color:#C6C3C5"/>
		<stop  offset="0.8764" style="stop-color:#8E888B"/>
		<stop  offset="1" style="stop-color:#DCDDDD"/>
		<stop  offset="1" style="stop-color:#B5B5B6"/>
	</linearGradient>
	<path class="st9" d="M100.6,23.6c-1-0.6-1.7-1.4-2.2-2.4S97.8,19,98,17.6l0.7-5.2c0.2-1.4,0.6-2.5,1.4-3.6c0.7-1,1.7-1.8,2.8-2.4
		c1.1-0.6,2.4-0.8,3.8-0.8s2.6,0.3,3.6,0.8c1,0.6,1.7,1.4,2.2,2.4s0.6,2.2,0.4,3.6l-0.7,5.2c-0.2,1.4-0.6,2.5-1.4,3.6
		c-0.7,1-1.7,1.8-2.8,2.4c-1.1,0.6-2.4,0.8-3.8,0.8S101.6,24.1,100.6,23.6z M106.5,20.5c0.5-0.3,1-0.6,1.3-1.1s0.5-1.1,0.6-1.7
		l0.7-5.4c0.1-0.6,0-1.2-0.2-1.7s-0.5-0.9-1-1.1c-0.5-0.3-1-0.4-1.7-0.4s-1.3,0.1-1.8,0.4c-0.5,0.3-1,0.6-1.3,1.1s-0.5,1.1-0.6,1.7
		l-0.7,5.4c-0.1,0.6,0,1.2,0.2,1.7s0.5,0.9,1,1.1c0.5,0.3,1,0.4,1.7,0.4S106,20.8,106.5,20.5z"/>
	
		<linearGradient id="SVGID_12_" gradientUnits="userSpaceOnUse" x1="121.6109" y1="11.5717" x2="121.6109" y2="29.7789" gradientTransform="matrix(1 0 0 -1 0 36)">
		<stop  offset="0" style="stop-color:#F0EEEB"/>
		<stop  offset="0" style="stop-color:#EAE7E3"/>
		<stop  offset="6.363168e-02" style="stop-color:#DCD8D6"/>
		<stop  offset="0.1851" style="stop-color:#B6B1B3"/>
		<stop  offset="0.264" style="stop-color:#9A959A"/>
		<stop  offset="0.5225" style="stop-color:#F9F9F9"/>
		<stop  offset="0.5878" style="stop-color:#EBEAEB"/>
		<stop  offset="0.7133" style="stop-color:#C6C3C5"/>
		<stop  offset="0.8764" style="stop-color:#8E888B"/>
		<stop  offset="1" style="stop-color:#DCDDDD"/>
		<stop  offset="1" style="stop-color:#B5B5B6"/>
	</linearGradient>
	<path class="st10" d="M118,24.2c-0.8-0.2-1.6-0.4-2.3-0.8c-0.7-0.3-1.3-0.7-1.9-1.2l2-2.8c0.6,0.6,1.4,1,2.3,1.3s1.9,0.5,2.9,0.5
		c1.2,0,2.1-0.2,2.8-0.6s1.1-0.9,1.2-1.6l0,0c0.1-0.5,0-0.9-0.3-1.1c-0.2-0.3-0.6-0.5-1-0.6s-1-0.2-1.7-0.4c0,0,0,0-0.1,0
		c0,0,0,0-0.1,0h-0.3c-1.2-0.2-2.2-0.4-3-0.7c-0.8-0.3-1.4-0.8-1.9-1.5c-0.5-0.7-0.6-1.7-0.5-3l0,0c0.2-1.2,0.6-2.1,1.2-3
		c0.6-0.8,1.5-1.4,2.6-1.8c1.1-0.4,2.4-0.6,3.8-0.6c0.7,0,1.3,0.1,2,0.2c0.7,0.1,1.3,0.4,2,0.6c0.6,0.3,1.2,0.6,1.8,1l-1.9,2.8
		c-0.7-0.5-1.4-0.8-2.1-1.1c-0.8-0.3-1.5-0.4-2.2-0.4c-1.1,0-1.9,0.2-2.6,0.5c-0.6,0.3-1,0.8-1.1,1.4l0,0c-0.1,0.5,0,0.9,0.3,1.2
		s0.6,0.5,1.1,0.7c0.4,0.1,1.1,0.3,1.9,0.4h0.1h0.1c0.1,0,0.1,0,0.1,0h0.1c1.2,0.2,2.1,0.5,2.9,0.8s1.4,0.8,1.8,1.5s0.6,1.7,0.4,2.9
		l0,0c-0.1,1.1-0.6,2.1-1.2,2.9c-0.7,0.8-1.6,1.4-2.7,1.9c-1.1,0.4-2.4,0.6-3.9,0.6C119.7,24.4,118.8,24.3,118,24.2z"/>
</g>
<image style="overflow:visible;" width="1242" height="996" id="reglos-logo_1_" xlink:href="../../../../../AppData/Roaming/Adobe/Creative Cloud Libraries/LIBS/5FE535B05F520BEB0A495E82_AdobeID/creative_cloud/dcx/c9516812-5bea-4258-8158-d221050af0c5/components/692254a1-ee96-4425-9eaf-eadd81aedcb1.png"  transform="matrix(0.75 0 0 0.75 307.6304 719.0087)">
</image>
<linearGradient id="SVGID_13_" gradientUnits="userSpaceOnUse" x1="82.5609" y1="31.2307" x2="82.5609" y2="27.3">
	<stop  offset="0" style="stop-color:#F0EEEB"/>
	<stop  offset="0" style="stop-color:#EAE7E3"/>
	<stop  offset="6.363168e-02" style="stop-color:#DCD8D6"/>
	<stop  offset="0.1851" style="stop-color:#B6B1B3"/>
	<stop  offset="0.264" style="stop-color:#9A959A"/>
	<stop  offset="0.5225" style="stop-color:#F9F9F9"/>
	<stop  offset="0.5878" style="stop-color:#EBEAEB"/>
	<stop  offset="0.7133" style="stop-color:#C6C3C5"/>
	<stop  offset="0.8764" style="stop-color:#8E888B"/>
	<stop  offset="1" style="stop-color:#DCDDDD"/>
	<stop  offset="1" style="stop-color:#B5B5B6"/>
</linearGradient>
<polygon class="st11" points="122.2,27.3 119,28.1 115.1,28.9 110.1,29.7 104.8,30.3 99.5,30.8 93.4,31.2 84,31.2 74.6,31.2 
	67.2,30.9 59.2,30.3 52.8,29.3 48.1,28.6 42.9,27.3 48.2,27.9 53.1,28.3 58.5,28.9 66.2,29.5 73.9,29.8 84.1,29.7 93.4,29.6 
	99.5,29.3 104.7,29 110,28.6 115,28.2 "/>
</svg>
