<?xml version="1.0" encoding="utf-8"?>
<!-- Generator: Adobe Illustrator 25.0.1, SVG Export Plug-In . SVG Version: 6.00 Build 0)  -->
<svg version="1.1" id="レイヤー_1" xmlns="http://www.w3.org/2000/svg" xmlns:xlink="http://www.w3.org/1999/xlink" x="0px"
	 y="0px" viewBox="0 0 115.1 68.3" style="enable-background:new 0 0 115.1 68.3;" xml:space="preserve">
<style type="text/css">
	.st0{fill:url(#SVGID_1_);}
	.st1{fill:url(#SVGID_2_);}
	.st2{fill:url(#SVGID_3_);}
	.st3{fill:url(#SVGID_4_);}
	.st4{fill:url(#SVGID_5_);}
	.st5{fill:url(#SVGID_6_);}
	.st6{fill:#FFFFFF;}
</style>
<g>
	
		<linearGradient id="SVGID_1_" gradientUnits="userSpaceOnUse" x1="50.8765" y1="-317.1703" x2="50.8765" y2="-299.3703" gradientTransform="matrix(1 0 0 -1 0 -213.8261)">
		<stop  offset="0" style="stop-color:#D4C7C6"/>
		<stop  offset="0.1513" style="stop-color:#D8CDCC"/>
		<stop  offset="0.3502" style="stop-color:#E4DDDC"/>
		<stop  offset="0.5112" style="stop-color:#F1F0EE"/>
		<stop  offset="0.6023" style="stop-color:#DBD9D8"/>
		<stop  offset="0.7937" style="stop-color:#A29D9F"/>
		<stop  offset="1" style="stop-color:#5F575C"/>
	</linearGradient>
	<path class="st0" d="M45.8,85.5h3.5l-2.4,17.8h-3.5L45.8,85.5z M46.2,92.9h6.5c0.4,0,0.7-0.1,1-0.3c0.3-0.2,0.5-0.4,0.7-0.7
		c0.2-0.3,0.3-0.7,0.4-1.1c0.1-0.4,0-0.8-0.1-1.1c-0.1-0.3-0.3-0.6-0.5-0.7c-0.3-0.2-0.6-0.3-0.9-0.3h-6.6l0.4-3.2h6.8
		c1,0,1.9,0.2,2.6,0.7c0.7,0.4,1.2,1.1,1.6,1.9c0.3,0.8,0.4,1.7,0.3,2.8c-0.1,1.1-0.5,2-1,2.8c-0.5,0.8-1.2,1.4-2.1,1.9
		c-0.8,0.4-1.8,0.7-2.8,0.7h-6.7L46.2,92.9z M49.8,95.6l3.9-0.6l4,8.3h-4.3L49.8,95.6z"/>
	
		<linearGradient id="SVGID_2_" gradientUnits="userSpaceOnUse" x1="68.1077" y1="-317.1703" x2="68.1077" y2="-299.3703" gradientTransform="matrix(1 0 0 -1 0 -213.8261)">
		<stop  offset="0" style="stop-color:#D4C7C6"/>
		<stop  offset="0.1513" style="stop-color:#D8CDCC"/>
		<stop  offset="0.3502" style="stop-color:#E4DDDC"/>
		<stop  offset="0.5112" style="stop-color:#F1F0EE"/>
		<stop  offset="0.6023" style="stop-color:#DBD9D8"/>
		<stop  offset="0.7937" style="stop-color:#A29D9F"/>
		<stop  offset="1" style="stop-color:#5F575C"/>
	</linearGradient>
	<path class="st1" d="M63,85.5h3.5l-2.3,17.8h-3.5L63,85.5z M62.3,100.1h11.3l-0.4,3.2H61.9L62.3,100.1z M63.3,92.9h9.9l-0.4,3.2
		h-9.9L63.3,92.9z M64.3,85.5h11.3l-0.4,3.2H63.8L64.3,85.5z"/>
	
		<linearGradient id="SVGID_3_" gradientUnits="userSpaceOnUse" x1="84.0185" y1="-317.3703" x2="84.0185" y2="-299.1703" gradientTransform="matrix(1 0 0 -1 0 -213.8261)">
		<stop  offset="0" style="stop-color:#D4C7C6"/>
		<stop  offset="0.1513" style="stop-color:#D8CDCC"/>
		<stop  offset="0.3502" style="stop-color:#E4DDDC"/>
		<stop  offset="0.5112" style="stop-color:#F1F0EE"/>
		<stop  offset="0.6023" style="stop-color:#DBD9D8"/>
		<stop  offset="0.7937" style="stop-color:#A29D9F"/>
		<stop  offset="1" style="stop-color:#5F575C"/>
	</linearGradient>
	<path class="st2" d="M91.1,93.4l-0.5,3.5c-0.2,1.3-0.6,2.5-1.3,3.5c-0.7,1-1.6,1.8-2.7,2.3c-1.1,0.6-2.3,0.8-3.7,0.8
		s-2.5-0.3-3.5-0.8s-1.7-1.3-2.1-2.2c-0.4-1-0.6-2.1-0.4-3.3l0.7-5.3c0.2-1.3,0.6-2.5,1.3-3.5c0.7-1,1.6-1.8,2.7-2.3
		c1.1-0.6,2.3-0.8,3.7-0.8c1.1,0,2.1,0.2,3,0.7c0.8,0.4,1.5,1,2.1,1.8c0.5,0.8,0.8,1.7,0.9,2.8h-3.8c-0.1-0.4-0.2-0.7-0.5-1
		c-0.3-0.3-0.6-0.5-1-0.6s-0.8-0.2-1.2-0.2c-0.6,0-1.2,0.1-1.7,0.4c-0.5,0.3-0.9,0.6-1.3,1.1c-0.3,0.5-0.5,1-0.6,1.7l-0.7,5.3
		c-0.1,0.6,0,1,0.2,1.5c0.2,0.4,0.5,0.8,1,1c0.5,0.2,1,0.3,1.7,0.3c0.6,0,1.2-0.1,1.7-0.4c0.5-0.2,0.9-0.6,1.2-1.1
		c0.3-0.5,0.5-1,0.6-1.7v-0.3h-2.8l0.4-3.2C84.5,93.4,91.1,93.4,91.1,93.4z"/>
	
		<linearGradient id="SVGID_4_" gradientUnits="userSpaceOnUse" x1="99.7077" y1="-317.1703" x2="99.7077" y2="-299.3703" gradientTransform="matrix(1 0 0 -1 0 -213.8261)">
		<stop  offset="0" style="stop-color:#D4C7C6"/>
		<stop  offset="0.1513" style="stop-color:#D8CDCC"/>
		<stop  offset="0.3502" style="stop-color:#E4DDDC"/>
		<stop  offset="0.5112" style="stop-color:#F1F0EE"/>
		<stop  offset="0.6023" style="stop-color:#DBD9D8"/>
		<stop  offset="0.7937" style="stop-color:#A29D9F"/>
		<stop  offset="1" style="stop-color:#5F575C"/>
	</linearGradient>
	<path class="st3" d="M95.6,85.5h3.5l-2.3,17.8h-3.5L95.6,85.5z M95.2,100.1h11l-0.4,3.2h-11L95.2,100.1z"/>
	
		<linearGradient id="SVGID_5_" gradientUnits="userSpaceOnUse" x1="115.1077" y1="-317.3703" x2="115.1077" y2="-298.5703" gradientTransform="matrix(1 0 0 -1 0 -213.8261)">
		<stop  offset="0" style="stop-color:#D4C7C6"/>
		<stop  offset="0.1513" style="stop-color:#D8CDCC"/>
		<stop  offset="0.3502" style="stop-color:#E4DDDC"/>
		<stop  offset="0.5112" style="stop-color:#F1F0EE"/>
		<stop  offset="0.6023" style="stop-color:#DBD9D8"/>
		<stop  offset="0.7937" style="stop-color:#A29D9F"/>
		<stop  offset="1" style="stop-color:#5F575C"/>
	</linearGradient>
	<path class="st4" d="M110.3,102.7c-1-0.6-1.7-1.4-2.2-2.4s-0.6-2.2-0.4-3.6l0.7-5.2c0.2-1.4,0.6-2.5,1.4-3.6c0.7-1,1.7-1.8,2.8-2.4
		c1.1-0.6,2.4-0.8,3.8-0.8s2.6,0.3,3.6,0.8c1,0.6,1.7,1.4,2.2,2.4s0.6,2.2,0.4,3.6l-0.7,5.2c-0.2,1.4-0.6,2.5-1.4,3.6
		c-0.7,1-1.7,1.8-2.8,2.4c-1.1,0.6-2.4,0.8-3.8,0.8S111.3,103.2,110.3,102.7z M116.2,99.6c0.5-0.3,1-0.6,1.3-1.1s0.5-1.1,0.6-1.7
		l0.7-5.4c0.1-0.6,0-1.2-0.2-1.7s-0.5-0.9-1-1.1c-0.5-0.3-1-0.4-1.7-0.4s-1.3,0.1-1.8,0.4c-0.5,0.3-1,0.6-1.3,1.1s-0.5,1.1-0.6,1.7
		l-0.7,5.4c-0.1,0.6,0,1.2,0.2,1.7s0.5,0.9,1,1.1c0.5,0.3,1,0.4,1.7,0.4S115.7,99.9,116.2,99.6z"/>
	
		<linearGradient id="SVGID_6_" gradientUnits="userSpaceOnUse" x1="131.3077" y1="-317.2857" x2="131.3077" y2="-299.2703" gradientTransform="matrix(1 0 0 -1 0 -213.8261)">
		<stop  offset="0" style="stop-color:#D4C7C6"/>
		<stop  offset="0.1513" style="stop-color:#D8CDCC"/>
		<stop  offset="0.3502" style="stop-color:#E4DDDC"/>
		<stop  offset="0.5112" style="stop-color:#F1F0EE"/>
		<stop  offset="0.6023" style="stop-color:#DBD9D8"/>
		<stop  offset="0.7937" style="stop-color:#A29D9F"/>
		<stop  offset="1" style="stop-color:#5F575C"/>
	</linearGradient>
	<path class="st5" d="M127.7,103.3c-0.8-0.2-1.6-0.4-2.3-0.8c-0.7-0.3-1.3-0.7-1.9-1.2l2-2.8c0.6,0.6,1.4,1,2.3,1.3
		c0.9,0.3,1.9,0.5,2.9,0.5c1.2,0,2.1-0.2,2.8-0.6c0.7-0.4,1.1-0.9,1.2-1.6l0,0c0.1-0.5,0-0.9-0.3-1.1c-0.2-0.3-0.6-0.5-1-0.6
		c-0.4-0.1-1-0.2-1.7-0.4c0,0,0,0-0.1,0c0,0,0,0-0.1,0h-0.3c-1.2-0.2-2.2-0.4-3-0.7c-0.8-0.3-1.4-0.8-1.9-1.5
		c-0.5-0.7-0.6-1.7-0.5-3l0,0c0.2-1.2,0.6-2.1,1.2-3c0.6-0.8,1.5-1.4,2.6-1.8c1.1-0.4,2.4-0.6,3.8-0.6c0.7,0,1.3,0.1,2,0.2
		c0.7,0.1,1.3,0.4,2,0.6c0.6,0.3,1.2,0.6,1.8,1l-1.9,2.8c-0.7-0.5-1.4-0.8-2.1-1.1c-0.8-0.3-1.5-0.4-2.2-0.4c-1.1,0-1.9,0.2-2.6,0.5
		c-0.6,0.3-1,0.8-1.1,1.4l0,0c-0.1,0.5,0,0.9,0.3,1.2c0.3,0.3,0.6,0.5,1.1,0.7c0.4,0.1,1.1,0.3,1.9,0.4h0.1h0.1c0.1,0,0.1,0,0.1,0
		h0.1c1.2,0.2,2.1,0.5,2.9,0.8c0.8,0.3,1.4,0.8,1.8,1.5c0.4,0.7,0.6,1.7,0.4,2.9l0,0c-0.1,1.1-0.6,2.1-1.2,2.9
		c-0.7,0.8-1.6,1.4-2.7,1.9c-1.1,0.4-2.4,0.6-3.9,0.6C129.4,103.5,128.5,103.4,127.7,103.3z"/>
</g>
<g>
	<path class="st6" d="M6.1,20.6c-0.7,1.2-1.4,2.1-2.1,2.9c-0.6,0.6-1.2,1.2-2,1.8c0,0,0,0,0,0c-0.1,0-0.1-0.1-0.1-0.2c0,0,0,0,0,0
		c1.5-1.9,2.8-4.6,3.8-7.9H3.6c-0.3,0-0.7,0-1.2,0.1l-0.2-0.8c0.5,0.1,1,0.2,1.4,0.2H6v-3.2c-0.9,0.1-2.1,0.3-3.5,0.4
		c-0.1,0-0.1-0.1-0.1-0.2c0-0.1,0-0.1,0.1-0.1c2.4-0.5,4.3-1.3,5.7-2.1c0.5-0.3,0.9-0.6,1.3-0.9c0.9,0.7,1.4,1.1,1.6,1.3
		c0.2,0.2,0.2,0.3,0.2,0.5c0,0.2-0.2,0.3-0.5,0.3c-0.2,0-0.3,0-0.6-0.1c-0.8,0.3-1.6,0.5-2.4,0.7v3.6H9c0.6-0.8,1-1.2,1.2-1.2
		c0.2,0,0.6,0.3,1.2,0.9c0.3,0.3,0.5,0.5,0.5,0.6c0,0.1-0.1,0.2-0.3,0.2H7.8v1.5c2.2,0.5,3.3,1.2,3.3,2.3c0,0.3-0.1,0.6-0.3,0.8
		c-0.2,0.2-0.4,0.3-0.6,0.3c-0.2,0-0.4-0.1-0.6-0.2c-0.1-0.1-0.3-0.4-0.5-0.9c-0.3-0.7-0.7-1.3-1.3-1.8v1.1l0,8.3
		c0,0.5-0.4,0.8-1.1,0.8c-0.5,0-0.8-0.2-0.8-0.6c0-0.1,0-1.3,0.1-3.6C6.1,23.3,6.1,21.8,6.1,20.6z M18.7,26.2
		c-2.6,1-5.3,1.7-8.2,2.2c-0.1,0.3-0.2,0.5-0.2,0.6c-0.1,0.1-0.2,0.1-0.3,0.1c-0.2,0-0.3-0.2-0.5-0.6c-0.1-0.4-0.3-1.1-0.6-2.2
		c0.4,0,0.8,0.1,1.3,0.1c0.4,0,0.7,0,1,0c1.4-4,2.3-7.9,2.8-11.8c0.2-1.2,0.2-2.4,0.3-3.4c1.5,0.3,2.4,0.5,2.7,0.6
		c0.3,0.1,0.5,0.2,0.5,0.4c0,0.3-0.3,0.5-0.9,0.7c-1,4.9-2.6,9.3-4.6,13.5c2.4-0.2,4.6-0.4,6.5-0.7c-0.5-1.7-1.2-3.4-2.2-5.2
		c0,0,0,0,0,0c0-0.1,0.1-0.2,0.2-0.2c0,0,0,0,0.1,0c3.1,2.8,4.6,5.1,4.6,6.8c0,0.5-0.1,0.9-0.4,1.2c-0.2,0.3-0.5,0.4-0.8,0.4
		c-0.3,0-0.6-0.1-0.8-0.4c-0.1-0.3-0.3-0.8-0.5-1.6L18.7,26.2z"/>
	<path class="st6" d="M31.1,15c0.3-0.2,0.6-0.3,0.8-0.3c0.4,0,0.7,0.1,0.9,0.2c0.3,0.2,0.5,0.4,0.5,0.6c0,0.3-0.2,0.6-0.6,0.7
		c-0.6,0.3-1.8,0.6-3.4,1c-0.1,0.3-0.4,1-0.7,2c-0.4,1-0.6,1.7-0.7,2c-0.4,1.1-1.2,3.1-2.3,6c-0.3,0.7-0.7,1-1.2,1
		c-0.2,0-0.4-0.1-0.6-0.3c-0.2-0.1-0.2-0.4-0.2-0.7c0-0.2,0.2-0.7,0.6-1.4c1.5-2.9,2.7-5.6,3.7-8.2c-1,0.2-1.8,0.3-2.2,0.3
		c-0.5,0-0.9-0.1-1.2-0.2c-0.3-0.1-0.5-0.3-0.8-0.6c-0.4-0.4-0.6-0.7-0.6-1.1c0-0.1,0-0.2,0.1-0.2c0.1,0,0.2,0.1,0.4,0.2
		c0.5,0.4,1.1,0.5,1.7,0.5c0.8,0,1.9-0.2,3.1-0.5c0.4-1.4,0.6-2.3,0.6-2.7c0-0.4-0.1-0.6-0.4-0.7c-0.2-0.1-0.5-0.2-0.8-0.2
		c-0.1,0-0.2-0.1-0.2-0.2c0-0.1,0.1-0.2,0.3-0.3c0.3-0.2,0.6-0.3,1-0.3c0.3,0,0.7,0.1,1.1,0.3c0.4,0.2,0.7,0.4,1,0.6
		c0.2,0.2,0.3,0.4,0.3,0.6c0,0.2-0.1,0.4-0.3,0.6c-0.2,0.2-0.3,0.4-0.5,0.7c-0.1,0.2-0.3,0.6-0.5,1.3C30.3,15.4,30.8,15.2,31.1,15z
		 M31.6,22.8l-0.1,0.4c-0.1,0.4-0.2,0.8-0.2,1.3c0,0.6,0.3,1.1,0.9,1.5c0.5,0.3,1.3,0.5,2.3,0.5c1,0,1.7-0.1,2.1-0.2
		c0.3-0.1,0.6-0.1,1.1-0.1c0.4,0,0.7,0.1,1,0.3c0.3,0.2,0.5,0.5,0.5,0.9c0,0.5-0.4,0.8-1.1,0.9c-0.4,0.1-1.1,0.1-2.3,0.1
		c-1,0-1.9-0.1-2.7-0.4c-0.8-0.2-1.5-0.6-1.9-1.2c-0.4-0.5-0.6-1.1-0.6-1.7c0-0.6,0.2-1.3,0.6-2c0.1-0.2,0.3-0.4,0.4-0.4
		C31.6,22.6,31.6,22.7,31.6,22.8z M35,18.8c-0.2,0-0.4,0-0.6,0c-0.3,0-0.5,0-0.8,0.1c-0.8,0.1-1.6,0.4-2.3,0.8
		c-0.1,0-0.1,0.1-0.2,0.1c-0.1,0-0.2-0.1-0.2-0.2c0-0.1,0-0.2,0.1-0.3c0.6-0.6,1.3-1,1.9-1.3c0.7-0.3,1.6-0.5,2.6-0.5
		c0.9,0,1.7,0.2,2.3,0.5c0.5,0.2,0.7,0.6,0.7,1c0,0.2-0.1,0.4-0.2,0.5c-0.1,0.1-0.3,0.2-0.5,0.2c-0.2,0-0.5,0-0.8-0.1
		c-0.2,0-0.5-0.1-0.8-0.1c-0.6,0-1.5,0.4-2.9,1.2c-0.1,0.1-0.2,0.1-0.3,0.1c-0.1,0-0.1,0-0.1-0.1C33,20.6,33.7,20,35,18.8z"/>
	<path class="st6" d="M46.4,21.8c2-1.4,4-2.1,5.8-2.1c0.6,0,1.1,0.1,1.6,0.3c0.3,0.1,0.7,0.3,1.1,0.6c0.9,0.6,1.3,1.5,1.3,2.7
		c0,1.4-0.7,2.6-2.2,3.6c-1,0.6-2.2,1.1-3.7,1.4c-1.4,0.3-2.8,0.5-4.2,0.5c-0.3,0-0.4-0.1-0.4-0.2c0-0.1,0-0.2,0.1-0.2
		c0,0,0.2,0,0.6-0.1c2.4-0.4,4.2-1.1,5.6-2c1.5-1,2.2-2.1,2.2-3.4c0-0.7-0.2-1.3-0.6-1.7c-0.5-0.5-1.1-0.7-1.8-0.7
		c-1.3,0-2.6,0.6-3.8,1.8c-0.6,0.6-1.1,1.3-1.4,2c-0.2,0.5-0.4,0.7-0.8,0.7c-0.3,0-0.6-0.2-0.8-0.7c-0.2-0.4-0.3-0.8-0.3-1.3
		c0-0.2,0-0.3,0.1-0.5c0.1-0.2,0.2-0.4,0.2-0.5c0.1-0.2,0.2-0.5,0.3-0.9c0.2-0.7,0.4-2,0.7-3.7c-1.2,0.1-1.9,0.2-2,0.2
		c-0.6,0-1-0.2-1.4-0.5c-0.5-0.4-0.8-0.8-1-1.2c0,0,0-0.1,0-0.1c0-0.1,0.1-0.2,0.2-0.2c0.1,0,0.1,0,0.3,0.1c0.4,0.2,0.7,0.4,1,0.5
		c0.2,0.1,0.5,0.1,0.9,0.1c0.5,0,1.3-0.1,2.4-0.3c0.2-1.1,0.3-2,0.3-2.6c0-0.3,0-0.5-0.1-0.6c-0.1-0.1-0.2-0.2-0.3-0.2
		c-0.3-0.1-0.6-0.2-0.8-0.2c-0.1,0-0.2,0-0.2-0.1c0-0.1,0.1-0.2,0.3-0.3c0.4-0.2,0.7-0.4,1-0.4c0.5,0,1.2,0.2,1.9,0.7
		c0.3,0.2,0.5,0.5,0.5,0.9c0,0.2-0.1,0.4-0.3,0.6c-0.1,0.1-0.2,0.4-0.4,0.8c-0.1,0.3-0.2,0.7-0.3,1.1c0.9-0.2,1.6-0.5,2-0.8
		c0.3-0.2,0.6-0.3,1-0.3c0.3,0,0.6,0.1,0.9,0.2c0.3,0.1,0.5,0.4,0.5,0.7c0,0.2-0.1,0.4-0.2,0.5c-0.1,0.1-0.4,0.2-0.8,0.4
		c-0.9,0.3-2.1,0.6-3.7,0.9C46.9,19.2,46.6,20.8,46.4,21.8z"/>
	<path class="st6" d="M63.9,20.8c0,0,0,0.2-0.1,0.4c-0.6,2-1,3.3-1.1,4.1c0,0.2,0,0.4,0,0.6v0.3c0,0.1,0,0.2,0,0.3
		c0,0.1,0,0.2,0,0.3c0.1,0.3,0.1,0.5,0.1,0.8c0,0.2-0.1,0.4-0.2,0.5c-0.2,0.1-0.3,0.2-0.6,0.2c-0.5,0-0.8-0.3-1.1-0.9
		c-0.5-1.1-0.7-2.5-0.7-4.4c0-2.1,0.3-4.4,0.9-7c0.2-0.9,0.3-1.6,0.3-1.9c0-0.5-0.2-1-0.5-1.4c-0.1-0.2-0.2-0.3-0.2-0.3
		c0-0.1,0.1-0.1,0.3-0.1c0.3,0,0.7,0.2,1.1,0.6c0.8,0.8,1.2,1.6,1.2,2.3c0,0.3-0.1,0.5-0.3,0.7c-0.2,0.2-0.4,0.6-0.7,1.4
		c-0.7,1.9-1.1,3.7-1.1,5.3c0,0.7,0,1.2,0.1,1.7c0,0.1,0.1,0.2,0.2,0.2c0.1,0,0.1,0,0.2-0.1c0.5-1.1,1-2.2,1.5-3.2
		c0.1-0.2,0.2-0.3,0.3-0.3C63.8,20.6,63.9,20.7,63.9,20.8z M72.3,24.1c1.4,0.6,2.4,1.1,2.9,1.7c0.3,0.3,0.4,0.6,0.4,0.9
		c0,0.3-0.1,0.5-0.3,0.7c-0.2,0.1-0.3,0.2-0.6,0.2c-0.2,0-0.5-0.1-0.7-0.4c-0.8-0.7-1.3-1.3-1.8-1.5c0,0.7-0.3,1.3-1,1.7
		c-0.6,0.4-1.3,0.6-2.2,0.6c-0.9,0-1.6-0.2-2.2-0.5c-0.3-0.2-0.6-0.5-0.8-0.8c-0.2-0.3-0.3-0.7-0.3-1c0-0.4,0.1-0.8,0.4-1.1
		c0.2-0.3,0.4-0.5,0.7-0.6c0.6-0.3,1.3-0.5,2.3-0.5c0.5,0,1.1,0.1,1.7,0.2l-0.1-5.4c-0.9,0.1-1.8,0.2-2.8,0.2c-0.5,0-1-0.1-1.4-0.3
		c-0.4-0.2-0.8-0.5-1.1-0.9c-0.1-0.1-0.1-0.3-0.1-0.3c0-0.1,0-0.2,0.1-0.2c0,0,0.2,0.1,0.4,0.2c0.5,0.2,1.1,0.4,1.8,0.4
		c0.7,0,1.8-0.1,3.1-0.3c0-1.9,0-3-0.1-3.3c0-0.4-0.3-0.6-0.7-0.7c-0.1,0-0.3,0-0.4,0l-0.3,0c-0.1,0-0.2-0.1-0.2-0.2
		c0-0.1,0.2-0.3,0.5-0.5c0.3-0.2,0.6-0.3,0.8-0.3c0.5,0,1,0.1,1.4,0.4c0.6,0.3,0.9,0.7,0.9,1c0,0.2-0.1,0.4-0.2,0.5
		c-0.2,0.2-0.3,0.5-0.3,0.8c-0.1,0.7-0.2,1.3-0.2,1.9c0.2,0,0.4-0.1,0.8-0.2c0.1,0,0.3-0.1,0.4-0.3c0.2-0.2,0.5-0.2,0.8-0.2
		c0.5,0,0.8,0.1,1,0.3c0.2,0.1,0.3,0.3,0.3,0.5c0,0.4-0.2,0.6-0.6,0.8c-0.5,0.2-1.4,0.4-2.7,0.7C72.1,20,72.2,22,72.3,24.1z
		 M70.7,25c-0.7-0.3-1.5-0.5-2.1-0.5c-0.7,0-1.2,0.1-1.5,0.2c-0.4,0.2-0.7,0.5-0.7,0.9c0,0.4,0.2,0.7,0.5,0.9
		c0.3,0.2,0.8,0.3,1.5,0.3c0.7,0,1.2-0.1,1.5-0.4c0.3-0.3,0.5-0.5,0.6-0.9C70.6,25.4,70.7,25.2,70.7,25z"/>
	<path class="st6" d="M78.1,24.8C78,24.8,78,24.7,78,24.6c0-0.1,0.1-0.2,0.2-0.2c1.6,0.3,2.8,0.8,3.6,1.4c0.9,0.6,1.3,1.3,1.3,2.1
		c0,0.4-0.1,0.7-0.4,0.9c-0.2,0.2-0.5,0.3-0.9,0.3c-0.5,0-0.8-0.3-1.1-0.9C80.2,26.9,79.4,25.7,78.1,24.8z"/>
	<path class="st6" d="M10.3,43.3V41h-1v0.2c0,0.5-0.4,0.7-1.2,0.7c-0.5,0-0.8-0.2-0.8-0.7c0-0.1,0-0.5,0-1.1c0-0.7,0-1.3,0-1.9H3.8
		c-0.4,0-0.8,0-1.3,0.1l-0.2-0.8c0.5,0.1,1.1,0.2,1.5,0.2h3.5v-0.9c0-0.5,0-1.1-0.1-1.6c1.3,0.1,2,0.2,2.3,0.3
		c0.2,0.1,0.4,0.2,0.4,0.3c0,0.2-0.2,0.4-0.7,0.5v1.4h4v-1.9c0-0.1,0-0.4-0.1-0.7c1.2,0.1,2,0.3,2.2,0.3c0.2,0.1,0.4,0.2,0.4,0.3
		c0,0.2-0.2,0.3-0.6,0.5v1.5h2.2c0.7-0.8,1.1-1.3,1.3-1.3c0.1,0,0.6,0.3,1.4,0.9c0.4,0.3,0.6,0.5,0.6,0.6c0,0.1-0.1,0.2-0.3,0.2
		h-5.2l0,2.9c0,0.5-0.4,0.7-1.1,0.7c-0.6,0-0.8-0.2-0.8-0.6V41h-1v2.2H16c0.6-0.6,0.9-0.9,1.1-0.9c0.2,0,0.5,0.3,1.1,0.8
		c0.3,0.3,0.5,0.5,0.5,0.6c0,0.1-0.2,0.3-0.6,0.6v0.5l0.1,2.7c0,0.5-0.4,0.8-1.2,0.8c-0.3,0-0.6-0.1-0.7-0.2
		c-0.1-0.1-0.1-0.2-0.1-0.5v-0.3h-4c0,0.3,0,0.8,0,1.4v0.8h5.1c0.9-0.9,1.4-1.4,1.5-1.4c0.1,0,0.6,0.3,1.4,1
		c0.4,0.3,0.6,0.6,0.6,0.7c0,0.1-0.1,0.2-0.3,0.2h-8.3c0,2.1,0,3.3,0,3.5c0,0.6-0.4,0.8-1.2,0.8c-0.6,0-0.8-0.2-0.8-0.6l0.1-3.6V50
		h-6c-0.6,0-1.3,0-2.1,0.1L2,49.3c0.8,0.1,1.6,0.2,2.3,0.2h6v-2.2H6.5v0.2c0,0.5-0.4,0.8-1.1,0.8c-0.6,0-0.8-0.2-0.8-0.7l0.1-3.5
		c0-0.7,0-1.3-0.1-1.9c0.5,0.2,1.2,0.6,2.2,1H10.3z M10.3,43.7H6.5v3.1h3.8V43.7z M9.3,40.6h4v-2.2h-4V40.6z M16.2,46.9v-3.1h-4v3.1
		H16.2z"/>
	<path class="st6" d="M26.5,49.1c-0.8,1-1.4,1.7-2,2.2c-0.5,0.4-1.2,0.9-2,1.3c0,0,0,0,0,0c-0.1,0-0.1-0.1-0.1-0.2c0,0,0,0,0-0.1
		c1-1.1,1.8-2.1,2.5-3.1c0.5-0.9,1-1.8,1.5-3h-2c-0.3,0-0.8,0-1.3,0.1l-0.2-0.8c0.5,0.1,1,0.2,1.4,0.2h2.3v-0.6c0-0.4,0-1-0.1-1.6
		c0.9,0.1,1.6,0.2,1.9,0.3c0.3,0.1,0.5,0.2,0.5,0.3c0,0.2-0.2,0.3-0.6,0.5v1.2h1.4c0.6-0.7,0.9-1,1.1-1c0.1,0,0.5,0.2,1.1,0.7
		c0.3,0.2,0.5,0.4,0.5,0.6c0,0.1-0.1,0.2-0.3,0.2h-3.9v1c2,0.4,3,1.1,3,2.1c0,0.3-0.1,0.5-0.3,0.7c-0.2,0.2-0.3,0.2-0.6,0.2
		c-0.3,0-0.5-0.1-0.6-0.2c-0.1-0.1-0.2-0.4-0.4-0.7c-0.3-0.8-0.7-1.4-1.2-1.8v0.8l0.1,5c0,0.5-0.4,0.8-1.1,0.8
		c-0.3,0-0.5-0.1-0.6-0.2c-0.1-0.1-0.2-0.3-0.2-0.5c0-0.1,0-0.7,0.1-1.8C26.5,50.7,26.5,49.8,26.5,49.1z M27.8,42.8
		c0.4-1,0.6-1.8,0.8-2.5c0.1-0.4,0.2-0.9,0.2-1.4c1.5,0.4,2.3,0.8,2.3,1.1c0,0.2-0.2,0.3-0.7,0.4c-0.6,0.9-1.3,1.7-2,2.5h1.3
		c0.6-0.8,1.1-1.2,1.2-1.2c0.1,0,0.5,0.3,1.2,0.8c0.3,0.3,0.5,0.5,0.5,0.6c0,0.1-0.1,0.2-0.3,0.2h-8.2c-0.3,0-0.7,0-1.2,0.1
		l-0.2-0.8c0.5,0.1,1,0.2,1.4,0.2H27.8z M26.5,38.2v-1.4c0-0.5,0-1-0.1-1.5c1.7,0.1,2.5,0.3,2.5,0.6c0,0.2-0.2,0.4-0.6,0.5v1.8h1.4
		c0.5-0.7,0.8-1.1,1-1.1c0.1,0,0.5,0.2,1.1,0.7c0.3,0.3,0.5,0.5,0.5,0.6c0,0.1-0.1,0.2-0.3,0.2h-7.3c-0.3,0-0.7,0-1.2,0.1l-0.2-0.8
		c0.5,0.1,1,0.2,1.4,0.2H26.5z M26.8,41.3c0,0.3-0.1,0.6-0.3,0.8c-0.2,0.2-0.4,0.3-0.6,0.3c-0.3,0-0.5-0.1-0.6-0.3
		c-0.1-0.2-0.2-0.5-0.2-1.1c-0.1-0.7-0.3-1.2-0.5-1.7c0,0,0,0,0-0.1c0-0.1,0-0.1,0.1-0.1c0,0,0,0,0,0C26.1,39.7,26.8,40.4,26.8,41.3
		z M34.7,42.7c-0.1,1.7-0.2,3.2-0.4,4.4c-0.3,1.8-0.9,3.2-1.7,4.4c-0.6,0.9-1.5,1.8-2.6,2.5c0,0,0,0,0,0c0,0-0.1,0-0.2-0.1
		c0,0-0.1-0.1-0.1-0.1c0,0,0,0,0,0c0.9-1.1,1.6-2.3,2.1-3.6c0.4-1.1,0.7-2.6,0.9-4.3c0.1-1.1,0.2-3,0.2-5.8c0-0.8,0-1.7-0.1-2.7
		c1,0.4,1.7,0.7,2.2,0.9c1-0.5,1.8-1,2.7-1.8c0.4-0.3,0.8-0.7,1.1-1.1c1.4,0.8,2.1,1.3,2.1,1.6c0,0.2-0.2,0.3-0.5,0.3
		c-0.1,0-0.2,0-0.4,0c-1.9,0.9-3.6,1.4-5.1,1.6v0.5c0,0.8,0,1.7,0,2.8h4.1c0.6-0.8,1.1-1.2,1.2-1.2c0.1,0,0.5,0.3,1.2,0.9
		c0.4,0.3,0.5,0.5,0.5,0.6c0,0.1-0.1,0.2-0.3,0.2h-2.8v3.8l0,7c0,0.5-0.4,0.7-1.2,0.7c-0.5,0-0.8-0.2-0.8-0.6l0.1-5.3v-5.7H34.7z"/>
	<path class="st6" d="M55.1,41.4c0-0.2,0.3-0.3,0.8-0.3c0.4,0,1,0.2,1.6,0.5c0.8,0.4,1.2,0.9,1.2,1.4c0,0.4-0.2,0.6-0.7,0.7
		c-0.2,0-0.6,0.1-1.1,0.3c-1,0.3-2,0.8-3,1.3c-1.2,0.6-1.8,0.9-1.9,1c0,0.3,0,0.9,0,1.6V49c0,0.3,0,0.6-0.1,0.7
		c-0.1,0.4-0.4,0.5-0.8,0.5c-0.6,0-0.9-0.3-0.9-1c0-0.1,0-0.4,0-0.8c0-0.4,0-0.8,0-1.2c-0.3,0.2-0.6,0.4-1.1,0.7
		c-0.6,0.4-1.1,0.8-1.3,1.2c-0.2,0.3-0.4,0.7-0.4,1.1c0,1,0.9,1.5,2.8,1.5c1.3,0,2.2,0,2.8-0.1c0.3-0.1,0.8-0.2,1.2-0.4
		c0.3-0.1,0.5-0.2,0.8-0.2c0.5,0,0.9,0.1,1.2,0.4c0.3,0.2,0.4,0.5,0.4,0.8c0,0.3-0.1,0.5-0.4,0.6c-0.5,0.3-1.8,0.5-4,0.5
		c-1.3,0-2.3-0.1-2.9-0.2C49,53,48.5,52.9,48,52.6c-0.9-0.4-1.4-1.2-1.4-2.3c0-0.9,0.5-1.8,1.4-2.7c0.5-0.5,1.3-1,2.2-1.6
		c0-0.2,0-0.6,0-1c0-1.2-0.3-1.8-1-1.8c-0.7,0-1.5,0.5-2.3,1.4c-0.1,0.1-0.6,0.8-1.5,2.1c-0.3,0.4-0.6,0.6-0.9,0.6
		c-0.3,0-0.5-0.1-0.6-0.2c-0.2-0.1-0.2-0.4-0.2-0.7c0-0.4,0.1-0.6,0.3-0.8c0.3-0.2,0.5-0.5,0.7-0.7c1.1-1.1,2.1-2.4,3-4.1
		c-0.6,0.1-1.1,0.1-1.5,0.1c-0.1,0-0.1,0-0.2,0c-0.5,0-1-0.2-1.4-0.5c-0.4-0.3-0.7-0.7-0.9-1.2c-0.1-0.2-0.1-0.3-0.1-0.5
		c0-0.1,0-0.2,0.1-0.2s0.2,0.1,0.2,0.2c0.4,0.6,1,0.8,2.1,0.8c0.6,0,1.4-0.1,2.4-0.3c0.3-0.5,0.5-1.1,0.7-1.7
		c0.1-0.3,0.1-0.5,0.1-0.6c0-0.1-0.1-0.2-0.2-0.4c-0.1-0.1-0.2-0.2-0.5-0.3c-0.2-0.1-0.3-0.1-0.4-0.2c-0.1,0-0.1,0-0.1-0.1
		c0-0.1,0-0.1,0.1-0.2c0.2-0.2,0.4-0.3,0.8-0.3c0.8,0,1.5,0.2,2.1,0.5c0.3,0.2,0.5,0.4,0.5,0.8c0,0.2-0.1,0.4-0.3,0.5
		c-0.2,0.2-0.4,0.4-0.6,0.6c-0.2,0.3-0.4,0.6-0.6,0.9c0.6-0.1,1.2-0.4,1.6-0.8c0.2-0.2,0.4-0.2,0.7-0.2c0.4,0,0.8,0.1,1,0.2
		c0.2,0.1,0.3,0.3,0.3,0.5c0,0.4-0.2,0.6-0.6,0.7c-1.1,0.4-2.5,0.8-3.9,1c-0.4,0.6-0.7,1-0.7,1.1c-0.3,0.6-0.7,1.1-1.1,1.6
		c0.9-0.6,1.6-0.9,2.2-0.9c0.8,0,1.4,0.3,1.7,0.8c0.2,0.4,0.4,1,0.4,1.7c1.8-1.1,3-1.8,3.5-2.2c0.5-0.3,0.7-0.5,0.7-0.6
		c0-0.1-0.1-0.3-0.2-0.4c-0.2-0.1-0.4-0.3-0.6-0.3C55.2,41.6,55.1,41.5,55.1,41.4z"/>
	<path class="st6" d="M69.7,43.5h7.1c0.5-0.6,0.9-1,1-1c0.1,0,0.6,0.3,1.4,1c0.4,0.4,0.6,0.6,0.6,0.7c0,0.3-0.3,0.4-0.8,0.4
		c-0.2,0-0.5,0.1-0.7,0.2c-0.4,0.4-0.9,0.7-1.6,1.1c0,0,0,0-0.1,0c-0.1,0-0.1,0-0.1-0.1c0,0,0,0,0,0c0.3-0.7,0.4-1.3,0.5-1.9h-7.3v0
		c0,0.7-0.1,1.3-0.4,1.7c-0.3,0.4-0.6,0.6-1.1,0.6c-0.3,0-0.5-0.1-0.7-0.3c-0.2-0.2-0.2-0.4-0.2-0.6c0-0.1,0-0.2,0-0.2
		c-0.1,0-0.2,0.1-0.3,0.1c-0.2,0-0.4-0.1-0.5-0.2c-0.1-0.1-0.1-0.4-0.2-0.8l-1,0.3v3l0.1,5.9c0,0.5-0.3,0.7-1,0.7
		c-0.5,0-0.8-0.2-0.8-0.6c0.1-1.3,0.1-2.8,0.1-4.5v-1.5c-0.1,0.1-0.3,0.2-0.6,0.2c-0.6,1.9-1.5,3.5-2.5,4.8c0,0,0,0-0.1,0
		c-0.1,0-0.2,0-0.2-0.1c0,0,0,0,0,0c0.4-1.2,0.7-2.5,0.9-3.9c0.1-0.8,0.2-1.5,0.2-2.1c1.4,0.4,2.1,0.7,2.2,0.8v-2.3
		c-0.4,0.1-1,0.3-2,0.5c-0.1,0.4-0.3,0.6-0.4,0.6c-0.2,0-0.5-0.8-0.7-2.3c0.7,0.1,1.4,0.1,2.1,0.1h0c0.7-1.1,1.3-2.3,1.9-3.6
		c0.5-1.1,0.8-1.9,0.9-2.4c1.5,0.7,2.3,1.1,2.3,1.3c0,0.2-0.2,0.3-0.6,0.3c-0.1,0-0.1,0-0.1,0c-0.6,0.9-1.2,1.7-1.7,2.3
		c-0.4,0.5-1,1.1-1.9,2c0.6,0,1.4,0,2.5-0.1h0.4c-0.1-0.5-0.3-1.1-0.6-1.6c0,0,0,0,0,0c0-0.1,0-0.1,0.1-0.1c0,0,0,0,0,0
		c1.3,0.7,2,1.4,2,2.3c0,0.1,0,0.2,0,0.2c0.9-0.5,1.3-1.2,1.3-2c0-0.1,0-0.1,0.1-0.1c0.1,0,0.1,0,0.1,0.1
		C69.5,42.8,69.6,43.1,69.7,43.5z M62.8,39.2c0.3-0.9,0.6-1.7,0.8-2.4c0.2-0.7,0.2-1.2,0.2-1.6c1.7,0.5,2.5,0.9,2.5,1.2
		c0,0.2-0.3,0.4-0.8,0.4c-1,1.2-1.7,2.1-2.4,2.7c0.6,0.4,0.9,0.9,0.9,1.5c0,0.4-0.1,0.6-0.3,0.9c-0.2,0.2-0.4,0.3-0.6,0.3
		c-0.3,0-0.5-0.1-0.6-0.2c-0.1-0.1-0.2-0.5-0.3-1C62,40,61.6,39.3,61,38.7c0,0,0-0.1,0-0.1c0-0.1,0-0.1,0.1-0.1h0
		C61.8,38.8,62.4,39,62.8,39.2z M68.3,49.6c0,0.4-0.1,0.6-0.3,0.9c-0.2,0.2-0.4,0.3-0.7,0.3c-0.3,0-0.5-0.1-0.6-0.3
		c-0.1-0.2-0.1-0.6-0.2-1.2c-0.1-1-0.3-1.9-0.6-2.5c0,0,0,0,0,0c0-0.1,0-0.1,0.1-0.1c0,0,0,0,0.1,0C67.6,47.7,68.3,48.7,68.3,49.6z
		 M72.8,46c0,0.2-0.2,0.3-0.5,0.5c0,0.2,0,0.5,0,0.9c-0.1,1.8-0.6,3.2-1.4,4.2c-0.9,1.1-2.3,2-4.4,2.5c0,0-0.1,0-0.1-0.1
		c0,0-0.1-0.1-0.1-0.1c0,0,0,0,0,0c1.4-0.7,2.5-1.7,3.1-2.8c0.6-1,0.9-2.5,0.9-4.4c0-0.3,0-0.8-0.1-1.3c1.2,0.1,1.9,0.2,2.2,0.3
		C72.6,45.7,72.8,45.8,72.8,46z M74,38.7v2.4h1.7c0.6-0.8,1-1.1,1.2-1.1c0.1,0,0.5,0.3,1.2,0.8c0.3,0.3,0.5,0.5,0.5,0.6
		s-0.1,0.2-0.3,0.2h-8.5c-0.3,0-0.7,0-1.2,0.1L68.4,41c0.5,0.1,0.9,0.2,1.4,0.2H72v-2.4h-2.7c-0.3,0-0.7,0-1.2,0.1l-0.2-0.8
		c0.5,0.1,1,0.2,1.5,0.2H72V37c0-0.3,0-0.8-0.1-1.6c1.7,0.1,2.6,0.4,2.6,0.6c0,0.2-0.2,0.3-0.6,0.5v1.7H76c0.7-0.9,1.2-1.3,1.3-1.3
		c0.1,0,0.6,0.3,1.3,0.9c0.4,0.3,0.6,0.6,0.6,0.7c0,0.1-0.1,0.2-0.3,0.2H74z M79.7,52.3c0,0.5-0.2,0.8-0.7,1
		c-0.6,0.2-1.4,0.4-2.5,0.4c-1.2,0-2-0.2-2.4-0.5c-0.3-0.3-0.5-0.8-0.5-1.5l0.1-2.2c0-1.6,0-3-0.1-4.1c1.2,0.1,2,0.3,2.2,0.3
		c0.2,0.1,0.3,0.2,0.3,0.3c0,0.2-0.2,0.3-0.5,0.5v5.1c0,0.2,0.1,0.4,0.2,0.4c0.1,0,0.3,0.1,0.7,0.1c0.5,0,0.9,0,1,0
		c0.2,0,0.3-0.1,0.5-0.3c0.3-0.3,0.6-1.1,1-2.3c0,0,0-0.1,0.1-0.1c0.1,0,0.1,0,0.1,0.1c0,1.1-0.1,1.7-0.1,1.7c0,0.2,0.1,0.3,0.3,0.4
		C79.6,51.7,79.7,51.9,79.7,52.3z"/>
	<path class="st6" d="M84.4,48.2c0.1,0.1,0.1,0.1,0.2,0.1c0.1,0,0.2-0.1,0.3-0.2c0.3-0.7,0.8-1.9,1.4-3.5c0.1-0.2,0.2-0.3,0.3-0.3
		c0.1,0,0.1,0.1,0.1,0.2c0,0.1-0.1,0.4-0.2,1c-0.1,0.3-0.2,0.7-0.3,1.3c-0.1,0.5-0.2,0.8-0.2,1.1c-0.2,0.8-0.3,1.3-0.3,1.6
		c0,0.2,0,0.5,0.1,0.7c0,0.3,0.1,0.5,0.1,0.6c0,0.6-0.2,0.9-0.6,0.9c-0.4,0-0.9-0.3-1.3-1c-0.7-1-1-2.4-1-4.2c0-1.2,0.1-2.7,0.4-4.5
		c0.1-0.4,0.1-0.7,0.2-1c0.1-0.3,0.1-0.5,0.1-0.5c0.1-0.6,0.2-1.1,0.2-1.5c0-0.5-0.2-1-0.6-1.5c-0.1-0.2-0.2-0.3-0.2-0.3
		c0-0.1,0.1-0.2,0.3-0.2c0.3,0,0.6,0.1,1,0.4c0.3,0.2,0.6,0.5,0.8,0.7c0.5,0.6,0.7,1.1,0.7,1.5c0,0.3-0.1,0.5-0.3,0.8
		c-0.2,0.3-0.4,0.6-0.5,0.8c-0.6,2-0.9,3.5-0.9,4.6C84,46.9,84.2,47.6,84.4,48.2z M94.6,40.9c0.5-0.1,0.9-0.2,1-0.3
		c0.2-0.1,0.4-0.1,0.7-0.1c0.2,0,0.3,0,0.5,0c0.7,0.1,1,0.4,1,1c0,0.3-0.2,0.5-0.7,0.6c-0.1,0-0.5,0-1.2,0.1c-0.4,0-0.9,0.1-1.4,0.1
		c0,0.8,0,1.9,0,3.3c0,2.1-0.4,3.7-1.2,4.9c-1,1.4-2.5,2.4-4.7,2.9c-0.3,0.1-0.5,0.1-0.7,0.1c-0.2,0-0.3-0.1-0.3-0.2
		c0-0.1,0.1-0.2,0.4-0.3c0.9-0.4,1.8-0.9,2.5-1.6c0.6-0.5,1.1-1.1,1.4-1.7c0.6-1.2,0.9-2.8,0.9-4.8l0-1.7c0-0.3,0-0.6,0-0.7
		c-0.2,0-0.6,0.1-1,0.2c-0.3,0-0.5,0.1-0.6,0.1c-0.9,0.1-1.3,0.2-1.4,0.2c-0.7,0-1.4-0.3-2-0.9c-0.3-0.2-0.4-0.4-0.4-0.6
		c0-0.1,0-0.2,0.1-0.2c0,0,0.1,0,0.3,0.1c0.4,0.2,1,0.3,1.7,0.3c0.4,0,1.5-0.2,3.3-0.5c0-0.4,0-1.3,0-2.4c0-0.5-0.1-0.9-0.2-1
		c-0.1-0.1-0.3-0.2-0.6-0.3c-0.1,0-0.3-0.1-0.7-0.2c-0.1,0-0.2-0.1-0.2-0.2c0-0.1,0.1-0.2,0.3-0.4c0.3-0.2,0.6-0.3,1-0.3
		c0.4,0,0.8,0.2,1.4,0.5c0.7,0.4,1.1,0.9,1.1,1.2c0,0.2-0.1,0.4-0.2,0.5c-0.1,0.1-0.2,0.3-0.2,0.6C94.7,39.8,94.6,40.4,94.6,40.9z"
		/>
	<path class="st6" d="M104,45.4L104,45.4c1.3-1.1,2.7-1.7,4.2-1.7c1.5,0,2.7,0.4,3.6,1.2c0.4,0.4,0.8,0.8,1,1.4
		c0.2,0.5,0.3,1,0.3,1.6c0,1.7-0.7,3.1-2.1,4c-1.2,0.8-2.5,1.2-4.1,1.2c-1.3,0-2.2-0.2-2.8-0.6c-0.7-0.5-1-1.1-1-1.9
		c0-0.6,0.2-1.1,0.7-1.5c0.5-0.3,1-0.5,1.7-0.5c0.9,0,1.6,0.3,2.3,1c0.5,0.5,0.8,1.1,1.1,1.7c0.6-0.2,1.1-0.6,1.4-1
		c0.5-0.6,0.7-1.4,0.7-2.5c0-1-0.3-1.8-1-2.5c-0.5-0.5-1.3-0.8-2.3-0.8c-1.2,0-2.3,0.4-3.3,1.2c-0.8,0.6-1.6,1.4-2.4,2.6
		c-0.4,0.5-0.7,0.8-1,0.8c-0.2,0-0.4-0.1-0.6-0.3c-0.2-0.2-0.4-0.4-0.4-0.8c0-0.4,0.1-0.7,0.4-0.9c1.7-1.8,3-3.3,3.9-4.4
		c1-1.2,2.1-2.5,3.2-4.1c0.2-0.2,0.2-0.4,0.2-0.4c0-0.1-0.1-0.2-0.2-0.2c0,0-0.1,0-0.1,0c-0.5,0.1-1.2,0.4-2.2,0.9
		c-0.3,0.1-0.7,0.3-1.2,0.6c-0.3,0.3-0.6,0.4-0.8,0.4c-0.3,0-0.6-0.2-0.9-0.5c-0.5-0.6-0.8-1.1-0.8-1.6c0-0.2,0-0.4,0.1-0.5
		c0.1-0.2,0.1-0.2,0.2-0.2s0.2,0.1,0.4,0.4c0.3,0.4,0.6,0.6,0.9,0.6c0.7,0,1.8-0.3,3.5-0.8c0.5-0.2,0.8-0.3,1-0.5
		c0.2-0.2,0.3-0.3,0.6-0.3c0.5,0,1.2,0.3,1.8,0.9c0.3,0.2,0.4,0.5,0.4,0.7c0,0.2-0.1,0.4-0.3,0.5c-0.4,0.2-0.7,0.4-0.8,0.5
		c-0.6,0.5-1.5,1.5-2.8,3c-0.3,0.3-0.7,0.8-1.4,1.6C104.8,44.5,104.4,45,104,45.4z M107.4,51.8c-0.2-0.8-0.5-1.4-1-1.8
		c-0.4-0.4-0.9-0.6-1.3-0.6c-0.4,0-0.8,0.1-1,0.4c-0.1,0.2-0.2,0.4-0.2,0.7c0,0.5,0.2,0.8,0.6,1c0.4,0.3,1.1,0.4,1.9,0.4
		C106.9,51.9,107.2,51.9,107.4,51.8z"/>
</g>
</svg>
