<?xml version="1.0" encoding="utf-8"?>
<!-- Generator: Adobe Illustrator 25.0.1, SVG Export Plug-In . SVG Version: 6.00 Build 0)  -->
<svg version="1.1" id="レイヤー_1" xmlns="http://www.w3.org/2000/svg" xmlns:xlink="http://www.w3.org/1999/xlink" x="0px"
	 y="0px" viewBox="0 0 174.3 42.3" style="enable-background:new 0 0 174.3 42.3;" xml:space="preserve">
<style type="text/css">
	.st0{fill:url(#SVGID_1_);}
	.st1{fill:url(#SVGID_2_);}
	.st2{fill:url(#SVGID_3_);}
	.st3{fill:url(#SVGID_4_);}
	.st4{fill:url(#SVGID_5_);}
	.st5{fill:url(#SVGID_6_);}
	.st6{fill:#FFFFFF;}
</style>
<g>
	
		<linearGradient id="SVGID_1_" gradientUnits="userSpaceOnUse" x1="82.1925" y1="-334.5833" x2="82.1925" y2="-316.7833" gradientTransform="matrix(1 0 0 -1 0 -248.6522)">
		<stop  offset="0" style="stop-color:#D4C7C6"/>
		<stop  offset="0.1513" style="stop-color:#D8CDCC"/>
		<stop  offset="0.3502" style="stop-color:#E4DDDC"/>
		<stop  offset="0.5112" style="stop-color:#F1F0EE"/>
		<stop  offset="0.6023" style="stop-color:#DBD9D8"/>
		<stop  offset="0.7937" style="stop-color:#A29D9F"/>
		<stop  offset="1" style="stop-color:#5F575C"/>
	</linearGradient>
	<path class="st0" d="M77.1,68.1h3.5l-2.4,17.8h-3.5L77.1,68.1z M77.5,75.5H84c0.4,0,0.7-0.1,1-0.3c0.3-0.2,0.5-0.4,0.7-0.7
		c0.2-0.3,0.3-0.7,0.4-1.1c0.1-0.4,0-0.8-0.1-1.1c-0.1-0.3-0.3-0.6-0.5-0.7c-0.3-0.2-0.6-0.3-0.9-0.3H78l0.4-3.2h6.8
		c1,0,1.9,0.2,2.6,0.7c0.7,0.4,1.2,1.1,1.6,1.9c0.3,0.8,0.4,1.7,0.3,2.8c-0.1,1.1-0.5,2-1,2.8c-0.5,0.8-1.2,1.4-2.1,1.9
		c-0.8,0.4-1.8,0.7-2.8,0.7h-6.7L77.5,75.5z M81.1,78.2l3.9-0.6l4,8.3h-4.3L81.1,78.2z"/>
	
		<linearGradient id="SVGID_2_" gradientUnits="userSpaceOnUse" x1="99.4237" y1="-334.5833" x2="99.4237" y2="-316.7833" gradientTransform="matrix(1 0 0 -1 0 -248.6522)">
		<stop  offset="0" style="stop-color:#D4C7C6"/>
		<stop  offset="0.1513" style="stop-color:#D8CDCC"/>
		<stop  offset="0.3502" style="stop-color:#E4DDDC"/>
		<stop  offset="0.5112" style="stop-color:#F1F0EE"/>
		<stop  offset="0.6023" style="stop-color:#DBD9D8"/>
		<stop  offset="0.7937" style="stop-color:#A29D9F"/>
		<stop  offset="1" style="stop-color:#5F575C"/>
	</linearGradient>
	<path class="st1" d="M94.3,68.1h3.5l-2.3,17.8H92L94.3,68.1z M93.6,82.7h11.3l-0.4,3.2H93.2L93.6,82.7z M94.6,75.5h9.9l-0.4,3.2
		h-9.9L94.6,75.5z M95.6,68.1h11.3l-0.4,3.2H95.1L95.6,68.1z"/>
	
		<linearGradient id="SVGID_3_" gradientUnits="userSpaceOnUse" x1="115.3345" y1="-334.7833" x2="115.3345" y2="-316.5833" gradientTransform="matrix(1 0 0 -1 0 -248.6522)">
		<stop  offset="0" style="stop-color:#D4C7C6"/>
		<stop  offset="0.1513" style="stop-color:#D8CDCC"/>
		<stop  offset="0.3502" style="stop-color:#E4DDDC"/>
		<stop  offset="0.5112" style="stop-color:#F1F0EE"/>
		<stop  offset="0.6023" style="stop-color:#DBD9D8"/>
		<stop  offset="0.7937" style="stop-color:#A29D9F"/>
		<stop  offset="1" style="stop-color:#5F575C"/>
	</linearGradient>
	<path class="st2" d="M122.4,76l-0.5,3.5c-0.2,1.3-0.6,2.5-1.3,3.5c-0.7,1-1.6,1.8-2.7,2.3c-1.1,0.6-2.3,0.8-3.7,0.8
		s-2.5-0.3-3.5-0.8s-1.7-1.3-2.1-2.2c-0.4-1-0.6-2.1-0.4-3.3l0.7-5.3c0.2-1.3,0.6-2.5,1.3-3.5c0.7-1,1.6-1.8,2.7-2.3
		c1.1-0.6,2.3-0.8,3.7-0.8c1.1,0,2.1,0.2,3,0.7c0.8,0.4,1.5,1,2.1,1.8c0.5,0.8,0.8,1.7,0.9,2.8h-3.8c-0.1-0.4-0.2-0.7-0.5-1
		c-0.3-0.3-0.6-0.5-1-0.6s-0.8-0.2-1.2-0.2c-0.6,0-1.2,0.1-1.7,0.4c-0.5,0.3-0.9,0.6-1.3,1.1c-0.3,0.5-0.5,1-0.6,1.7l-0.7,5.3
		c-0.1,0.6,0,1,0.2,1.5c0.2,0.4,0.5,0.8,1,1c0.5,0.2,1,0.3,1.7,0.3c0.6,0,1.2-0.1,1.7-0.4c0.5-0.2,0.9-0.6,1.2-1.1
		c0.3-0.5,0.5-1,0.6-1.7v-0.3h-2.8l0.4-3.2C115.8,76,122.4,76,122.4,76z"/>
	
		<linearGradient id="SVGID_4_" gradientUnits="userSpaceOnUse" x1="131.0237" y1="-334.5833" x2="131.0237" y2="-316.7833" gradientTransform="matrix(1 0 0 -1 0 -248.6522)">
		<stop  offset="0" style="stop-color:#D4C7C6"/>
		<stop  offset="0.1513" style="stop-color:#D8CDCC"/>
		<stop  offset="0.3502" style="stop-color:#E4DDDC"/>
		<stop  offset="0.5112" style="stop-color:#F1F0EE"/>
		<stop  offset="0.6023" style="stop-color:#DBD9D8"/>
		<stop  offset="0.7937" style="stop-color:#A29D9F"/>
		<stop  offset="1" style="stop-color:#5F575C"/>
	</linearGradient>
	<path class="st3" d="M126.9,68.1h3.5l-2.3,17.8h-3.5L126.9,68.1z M126.5,82.7h11l-0.4,3.2h-11L126.5,82.7z"/>
	
		<linearGradient id="SVGID_5_" gradientUnits="userSpaceOnUse" x1="146.4237" y1="-334.7833" x2="146.4237" y2="-315.9833" gradientTransform="matrix(1 0 0 -1 0 -248.6522)">
		<stop  offset="0" style="stop-color:#D4C7C6"/>
		<stop  offset="0.1513" style="stop-color:#D8CDCC"/>
		<stop  offset="0.3502" style="stop-color:#E4DDDC"/>
		<stop  offset="0.5112" style="stop-color:#F1F0EE"/>
		<stop  offset="0.6023" style="stop-color:#DBD9D8"/>
		<stop  offset="0.7937" style="stop-color:#A29D9F"/>
		<stop  offset="1" style="stop-color:#5F575C"/>
	</linearGradient>
	<path class="st4" d="M141.6,85.3c-1-0.6-1.7-1.4-2.2-2.4s-0.6-2.2-0.4-3.6l0.7-5.2c0.2-1.4,0.6-2.5,1.4-3.6c0.7-1,1.7-1.8,2.8-2.4
		c1.1-0.6,2.4-0.8,3.8-0.8c1.4,0,2.6,0.3,3.6,0.8c1,0.6,1.7,1.4,2.2,2.4s0.6,2.2,0.4,3.6l-0.7,5.2c-0.2,1.4-0.6,2.5-1.4,3.6
		c-0.7,1-1.7,1.8-2.8,2.4c-1.1,0.6-2.4,0.8-3.8,0.8C143.8,86.1,142.6,85.8,141.6,85.3z M147.5,82.2c0.5-0.3,1-0.6,1.3-1.1
		s0.5-1.1,0.6-1.7l0.7-5.4c0.1-0.6,0-1.2-0.2-1.7s-0.5-0.9-1-1.1c-0.5-0.3-1-0.4-1.7-0.4s-1.3,0.1-1.8,0.4c-0.5,0.3-1,0.6-1.3,1.1
		s-0.5,1.1-0.6,1.7l-0.7,5.4c-0.1,0.6,0,1.2,0.2,1.7s0.5,0.9,1,1.1c0.5,0.3,1,0.4,1.7,0.4S147,82.5,147.5,82.2z"/>
	
		<linearGradient id="SVGID_6_" gradientUnits="userSpaceOnUse" x1="162.6237" y1="-334.6988" x2="162.6237" y2="-316.6833" gradientTransform="matrix(1 0 0 -1 0 -248.6522)">
		<stop  offset="0" style="stop-color:#D4C7C6"/>
		<stop  offset="0.1513" style="stop-color:#D8CDCC"/>
		<stop  offset="0.3502" style="stop-color:#E4DDDC"/>
		<stop  offset="0.5112" style="stop-color:#F1F0EE"/>
		<stop  offset="0.6023" style="stop-color:#DBD9D8"/>
		<stop  offset="0.7937" style="stop-color:#A29D9F"/>
		<stop  offset="1" style="stop-color:#5F575C"/>
	</linearGradient>
	<path class="st5" d="M159,85.9c-0.8-0.2-1.6-0.4-2.3-0.8c-0.7-0.3-1.3-0.7-1.9-1.2l2-2.8c0.6,0.6,1.4,1,2.3,1.3
		c0.9,0.3,1.9,0.5,2.9,0.5c1.2,0,2.1-0.2,2.8-0.6c0.7-0.4,1.1-0.9,1.2-1.6l0,0c0.1-0.5,0-0.9-0.3-1.1c-0.2-0.3-0.6-0.5-1-0.6
		c-0.4-0.1-1-0.2-1.7-0.4c0,0,0,0-0.1,0c0,0,0,0-0.1,0h-0.3c-1.2-0.2-2.2-0.4-3-0.7c-0.8-0.3-1.4-0.8-1.9-1.5
		c-0.5-0.7-0.6-1.7-0.5-3l0,0c0.2-1.2,0.6-2.1,1.2-3c0.6-0.8,1.5-1.4,2.6-1.8c1.1-0.4,2.4-0.6,3.8-0.6c0.7,0,1.3,0.1,2,0.2
		s1.3,0.4,2,0.6c0.6,0.3,1.2,0.6,1.8,1l-1.9,2.8c-0.7-0.5-1.4-0.8-2.1-1.1c-0.8-0.3-1.5-0.4-2.2-0.4c-1.1,0-1.9,0.2-2.6,0.5
		c-0.6,0.3-1,0.8-1.1,1.4l0,0c-0.1,0.5,0,0.9,0.3,1.2c0.3,0.3,0.6,0.5,1.1,0.7c0.4,0.1,1.1,0.3,1.9,0.4h0.1h0.1c0.1,0,0.1,0,0.1,0
		h0.1c1.2,0.2,2.1,0.5,2.9,0.8s1.4,0.8,1.8,1.5c0.4,0.7,0.6,1.7,0.4,2.9l0,0c-0.1,1.1-0.6,2.1-1.2,2.9c-0.7,0.8-1.6,1.4-2.7,1.9
		c-1.1,0.4-2.4,0.6-3.9,0.6C160.7,86.1,159.8,86,159,85.9z"/>
</g>
<g>
	<path class="st6" d="M3.7,21c-0.6,1-1.2,1.9-1.8,2.6c-0.5,0.6-1.1,1.1-1.8,1.6c0,0,0,0,0,0C0,25.2,0,25.1,0,25c0,0,0,0,0,0
		c1.3-1.7,2.4-4,3.3-6.9H1.5c-0.3,0-0.6,0-1.1,0.1l-0.2-0.7c0.4,0.1,0.8,0.1,1.2,0.1h2.2v-2.8c-0.8,0.1-1.9,0.2-3.1,0.3
		c-0.1,0-0.1-0.1-0.1-0.2c0,0,0-0.1,0-0.1c2.1-0.5,3.8-1.1,5-1.9c0.4-0.3,0.8-0.5,1.1-0.8c0.8,0.6,1.2,1,1.4,1.1
		c0.1,0.1,0.2,0.3,0.2,0.4c0,0.1-0.1,0.2-0.4,0.2c-0.1,0-0.3,0-0.5-0.1c-0.7,0.3-1.4,0.5-2.1,0.6v3.1h1c0.6-0.7,0.9-1.1,1.1-1.1
		c0.1,0,0.5,0.3,1.1,0.8c0.3,0.3,0.4,0.4,0.4,0.5c0,0.1-0.1,0.2-0.2,0.2H5.2v1.3c1.9,0.4,2.9,1.1,2.9,2.1c0,0.3-0.1,0.5-0.3,0.7
		c-0.2,0.2-0.3,0.2-0.5,0.2c-0.2,0-0.4-0.1-0.5-0.2c-0.1-0.1-0.2-0.4-0.4-0.8c-0.3-0.6-0.6-1.1-1.1-1.6v1l0,7.3c0,0.5-0.3,0.7-1,0.7
		c-0.5,0-0.7-0.2-0.7-0.5c0-0.1,0-1.2,0.1-3.2C3.7,23.4,3.7,22,3.7,21z M14.8,25.9c-2.3,0.9-4.7,1.5-7.2,1.9
		c-0.1,0.3-0.1,0.5-0.2,0.6c-0.1,0.1-0.1,0.1-0.2,0.1c-0.1,0-0.3-0.2-0.4-0.6c-0.1-0.3-0.3-1-0.5-1.9c0.3,0,0.7,0.1,1.1,0.1
		c0.4,0,0.6,0,0.8,0c1.2-3.5,2-7,2.5-10.4c0.1-1.1,0.2-2.1,0.2-3c1.3,0.3,2.1,0.5,2.4,0.6c0.3,0.1,0.4,0.2,0.4,0.4
		c0,0.3-0.3,0.5-0.8,0.6c-0.9,4.3-2.3,8.2-4,11.8c2.1-0.1,4.1-0.3,5.7-0.6c-0.4-1.5-1.1-3-2-4.6c0,0,0,0,0,0c0-0.1,0.1-0.1,0.2-0.1
		c0,0,0,0,0,0c2.7,2.5,4,4.5,4,5.9c0,0.4-0.1,0.8-0.3,1.1c-0.2,0.2-0.4,0.3-0.7,0.3c-0.3,0-0.5-0.1-0.7-0.4
		c-0.1-0.2-0.3-0.7-0.4-1.4L14.8,25.9z"/>
	<path class="st6" d="M25.7,16c0.3-0.2,0.5-0.3,0.7-0.3c0.3,0,0.6,0.1,0.8,0.2c0.3,0.1,0.4,0.3,0.4,0.5c0,0.3-0.2,0.5-0.6,0.7
		c-0.6,0.2-1.6,0.5-3,0.9c-0.1,0.3-0.3,0.9-0.6,1.7c-0.3,0.9-0.5,1.5-0.6,1.7c-0.3,1-1,2.7-2,5.3c-0.2,0.6-0.6,0.9-1.1,0.9
		c-0.2,0-0.3-0.1-0.5-0.3C19.1,27.3,19,27,19,26.7c0-0.2,0.2-0.6,0.5-1.3c1.3-2.6,2.4-5,3.2-7.2c-0.9,0.2-1.6,0.2-2,0.2
		c-0.4,0-0.8-0.1-1-0.2c-0.2-0.1-0.5-0.3-0.7-0.5c-0.3-0.3-0.5-0.7-0.5-0.9c0-0.1,0-0.2,0.1-0.2c0.1,0,0.2,0.1,0.3,0.2
		c0.5,0.3,1,0.5,1.5,0.5c0.7,0,1.6-0.1,2.8-0.4c0.4-1.3,0.6-2,0.6-2.4c0-0.3-0.1-0.5-0.4-0.6c-0.2-0.1-0.4-0.2-0.7-0.2
		c-0.1,0-0.2-0.1-0.2-0.1c0-0.1,0.1-0.2,0.3-0.3c0.3-0.1,0.5-0.2,0.8-0.2c0.3,0,0.6,0.1,1,0.2c0.3,0.1,0.6,0.3,0.9,0.5
		c0.2,0.2,0.3,0.3,0.3,0.5c0,0.2-0.1,0.4-0.3,0.5c-0.2,0.2-0.3,0.4-0.4,0.6c-0.1,0.2-0.2,0.5-0.4,1.1C25,16.4,25.4,16.2,25.7,16z
		 M26.2,22.9l-0.1,0.4c-0.1,0.3-0.2,0.7-0.2,1.1c0,0.6,0.3,1,0.8,1.3c0.5,0.3,1.1,0.4,2,0.4c0.9,0,1.5,0,1.8-0.1
		c0.3-0.1,0.6-0.1,0.9-0.1c0.3,0,0.6,0.1,0.9,0.2c0.3,0.2,0.5,0.4,0.5,0.8c0,0.4-0.3,0.7-1,0.8c-0.3,0.1-1,0.1-2,0.1
		c-0.9,0-1.7-0.1-2.4-0.3c-0.7-0.2-1.3-0.6-1.7-1.1c-0.3-0.4-0.5-0.9-0.5-1.5c0-0.6,0.2-1.1,0.5-1.8c0.1-0.2,0.2-0.3,0.3-0.3
		C26.2,22.8,26.2,22.8,26.2,22.9z M29.2,19.4c-0.1,0-0.3,0-0.5,0c-0.2,0-0.4,0-0.7,0c-0.7,0.1-1.4,0.3-2.1,0.7
		c-0.1,0-0.1,0.1-0.2,0.1c-0.1,0-0.2-0.1-0.2-0.2c0-0.1,0-0.1,0.1-0.2c0.6-0.5,1.1-0.9,1.7-1.1c0.7-0.3,1.4-0.4,2.3-0.4
		c0.8,0,1.5,0.1,2,0.4c0.4,0.2,0.6,0.5,0.6,0.9c0,0.2-0.1,0.3-0.2,0.4c-0.1,0.1-0.3,0.1-0.4,0.1c-0.2,0-0.4,0-0.7-0.1
		c-0.2,0-0.4-0.1-0.7-0.1c-0.5,0-1.3,0.3-2.6,1c-0.1,0.1-0.2,0.1-0.3,0.1c0,0-0.1,0-0.1-0.1C27.4,20.9,28,20.4,29.2,19.4z"/>
	<path class="st6" d="M39.2,22.1c1.8-1.2,3.5-1.8,5.1-1.8c0.5,0,1,0.1,1.4,0.2c0.3,0.1,0.6,0.3,1,0.6c0.7,0.5,1.1,1.3,1.1,2.4
		c0,1.3-0.7,2.3-2,3.2c-0.9,0.5-2,1-3.2,1.3c-1.2,0.3-2.5,0.4-3.7,0.4c-0.3,0-0.4-0.1-0.4-0.2c0-0.1,0-0.2,0.1-0.2
		c0,0,0.2,0,0.5-0.1c2.1-0.4,3.7-1,4.9-1.8c1.3-0.9,2-1.9,2-3c0-0.6-0.2-1.1-0.5-1.5c-0.4-0.4-0.9-0.6-1.6-0.6
		c-1.1,0-2.2,0.5-3.4,1.6c-0.6,0.5-1,1.1-1.3,1.8c-0.2,0.4-0.4,0.6-0.7,0.6c-0.3,0-0.5-0.2-0.7-0.6c-0.2-0.3-0.3-0.7-0.3-1.1
		c0-0.1,0-0.3,0.1-0.4c0.1-0.2,0.2-0.3,0.2-0.4c0.1-0.2,0.2-0.5,0.2-0.8c0.2-0.6,0.4-1.7,0.6-3.3c-1.1,0.1-1.6,0.2-1.8,0.2
		c-0.5,0-0.9-0.1-1.2-0.4c-0.4-0.4-0.7-0.7-0.8-1.1c0,0,0-0.1,0-0.1c0-0.1,0-0.2,0.2-0.2c0,0,0.1,0,0.2,0.1c0.3,0.2,0.6,0.3,0.8,0.4
		c0.2,0,0.4,0.1,0.8,0.1c0.4,0,1.1-0.1,2.1-0.3c0.2-1,0.2-1.7,0.2-2.3c0-0.3,0-0.5-0.1-0.6C39,14,38.9,14,38.8,13.9
		c-0.3-0.1-0.5-0.1-0.7-0.2c-0.1,0-0.1,0-0.1-0.1c0-0.1,0.1-0.2,0.2-0.3c0.3-0.2,0.6-0.3,0.8-0.3c0.5,0,1,0.2,1.7,0.6
		c0.3,0.2,0.5,0.4,0.5,0.8c0,0.2-0.1,0.4-0.3,0.5c-0.1,0.1-0.2,0.3-0.3,0.7c-0.1,0.3-0.2,0.6-0.3,1c0.8-0.2,1.4-0.5,1.7-0.7
		c0.2-0.2,0.5-0.3,0.9-0.3c0.3,0,0.6,0,0.8,0.1c0.3,0.1,0.5,0.3,0.5,0.7c0,0.2-0.1,0.3-0.2,0.5c-0.1,0.1-0.4,0.2-0.7,0.3
		c-0.8,0.2-1.9,0.5-3.3,0.8C39.6,19.8,39.4,21.1,39.2,22.1z"/>
	<path class="st6" d="M54.6,21.1c0,0,0,0.1-0.1,0.3c-0.5,1.8-0.8,2.9-0.9,3.6c0,0.2,0,0.3,0,0.5v0.3c0,0.1,0,0.2,0,0.3
		c0,0.1,0,0.2,0,0.3c0,0.3,0.1,0.5,0.1,0.7c0,0.2-0.1,0.3-0.2,0.4c-0.1,0.1-0.3,0.2-0.5,0.2c-0.4,0-0.7-0.3-1-0.8
		c-0.4-0.9-0.6-2.2-0.6-3.9c0-1.8,0.3-3.9,0.8-6.2c0.2-0.8,0.3-1.4,0.3-1.6c0-0.4-0.1-0.8-0.4-1.3c-0.1-0.1-0.1-0.2-0.1-0.3
		c0-0.1,0.1-0.1,0.3-0.1c0.3,0,0.6,0.2,1,0.5c0.7,0.7,1.1,1.4,1.1,2c0,0.2-0.1,0.4-0.3,0.6c-0.2,0.2-0.4,0.6-0.6,1.2
		c-0.6,1.7-0.9,3.3-0.9,4.7c0,0.6,0,1.1,0.1,1.5c0,0.1,0.1,0.2,0.2,0.2c0.1,0,0.1,0,0.1-0.1c0.5-1,0.9-1.9,1.3-2.8
		c0.1-0.2,0.2-0.3,0.2-0.2C54.5,21,54.6,21,54.6,21.1z M62,24.1c1.2,0.5,2.1,1,2.6,1.5c0.2,0.2,0.3,0.5,0.3,0.8
		c0,0.2-0.1,0.5-0.3,0.6c-0.1,0.1-0.3,0.2-0.5,0.2c-0.2,0-0.4-0.1-0.7-0.3c-0.7-0.7-1.2-1.1-1.6-1.3c0,0.6-0.3,1.1-0.9,1.5
		c-0.5,0.3-1.2,0.5-1.9,0.5c-0.8,0-1.4-0.1-1.9-0.4c-0.3-0.2-0.6-0.4-0.7-0.7c-0.2-0.3-0.3-0.6-0.3-0.9c0-0.4,0.1-0.7,0.3-1
		c0.2-0.2,0.4-0.4,0.6-0.5c0.5-0.3,1.2-0.4,2-0.4c0.4,0,0.9,0.1,1.5,0.2L60.5,19c-0.8,0.1-1.6,0.2-2.4,0.2c-0.5,0-0.9-0.1-1.2-0.3
		c-0.4-0.2-0.7-0.5-0.9-0.8c-0.1-0.1-0.1-0.2-0.1-0.3c0-0.1,0-0.1,0.1-0.1c0,0,0.2,0,0.3,0.1c0.4,0.2,0.9,0.3,1.6,0.3
		c0.7,0,1.6-0.1,2.7-0.3c0-1.6,0-2.6-0.1-2.9c0-0.4-0.2-0.6-0.6-0.6c-0.1,0-0.2,0-0.4,0l-0.2,0c-0.1,0-0.1,0-0.1-0.1
		c0-0.1,0.2-0.3,0.5-0.4c0.2-0.2,0.5-0.2,0.7-0.2c0.4,0,0.9,0.1,1.3,0.3c0.6,0.3,0.8,0.6,0.8,0.9c0,0.2-0.1,0.3-0.2,0.4
		c-0.2,0.2-0.3,0.4-0.3,0.7c-0.1,0.6-0.1,1.2-0.2,1.7c0.1,0,0.4-0.1,0.7-0.2c0.1,0,0.3-0.1,0.4-0.2c0.2-0.1,0.4-0.2,0.7-0.2
		c0.4,0,0.7,0.1,0.9,0.2c0.1,0.1,0.2,0.3,0.2,0.4c0,0.3-0.2,0.5-0.5,0.7c-0.5,0.2-1.3,0.4-2.4,0.6C61.8,20.5,61.9,22.2,62,24.1z
		 M60.5,24.9c-0.7-0.3-1.3-0.5-1.9-0.5c-0.6,0-1,0.1-1.3,0.2c-0.4,0.2-0.6,0.5-0.6,0.8c0,0.3,0.2,0.6,0.5,0.8
		c0.3,0.2,0.7,0.2,1.4,0.2c0.6,0,1-0.1,1.4-0.3c0.3-0.2,0.4-0.5,0.5-0.8C60.5,25.2,60.5,25,60.5,24.9z"/>
	<path class="st6" d="M67.1,24.7C67,24.6,67,24.6,67,24.5c0-0.1,0.1-0.2,0.2-0.2c1.4,0.3,2.4,0.7,3.2,1.2c0.8,0.5,1.2,1.2,1.2,1.8
		c0,0.3-0.1,0.6-0.3,0.8c-0.2,0.2-0.5,0.3-0.8,0.3c-0.4,0-0.7-0.3-1-0.8C69,26.5,68.2,25.5,67.1,24.7z"/>
	<path class="st6" d="M83.1,19.2v-2h-0.9v0.2c0,0.4-0.3,0.6-1,0.6c-0.5,0-0.7-0.2-0.7-0.6c0-0.1,0-0.4,0-0.9c0-0.6,0-1.2,0-1.7h-3.1
		c-0.3,0-0.7,0-1.1,0.1L76,14.3c0.5,0.1,0.9,0.1,1.3,0.1h3.1v-0.8c0-0.5,0-1-0.1-1.4c1.1,0.1,1.8,0.2,2,0.3c0.2,0.1,0.3,0.1,0.3,0.3
		c0,0.2-0.2,0.3-0.6,0.5v1.3h3.5v-1.7c0-0.1,0-0.3-0.1-0.6c1.1,0.1,1.7,0.2,2,0.3c0.2,0.1,0.3,0.1,0.3,0.3c0,0.1-0.2,0.3-0.5,0.4
		v1.3h1.9c0.6-0.7,1-1.1,1.2-1.1c0.1,0,0.5,0.3,1.2,0.8c0.3,0.3,0.5,0.5,0.5,0.6c0,0.1-0.1,0.2-0.2,0.2h-4.6l0,2.5
		c0,0.4-0.3,0.6-1,0.6c-0.5,0-0.7-0.2-0.7-0.5v-0.2h-0.9v2h3.4c0.5-0.5,0.8-0.8,0.9-0.8c0.1,0,0.5,0.2,1,0.7
		c0.3,0.2,0.4,0.4,0.4,0.5c0,0.1-0.2,0.3-0.5,0.5v0.5l0.1,2.3c0,0.4-0.3,0.7-1,0.7c-0.3,0-0.5-0.1-0.6-0.2c-0.1-0.1-0.1-0.2-0.1-0.4
		v-0.2h-3.5c0,0.3,0,0.7,0,1.2v0.7h4.5c0.7-0.8,1.2-1.2,1.3-1.2c0.1,0,0.5,0.3,1.2,0.9c0.4,0.3,0.5,0.5,0.5,0.6s-0.1,0.2-0.2,0.2
		h-7.3c0,1.9,0,2.9,0,3.1c0,0.5-0.4,0.7-1.1,0.7c-0.5,0-0.7-0.2-0.7-0.6l0.1-3.2v-0.1h-5.3c-0.5,0-1.1,0-1.8,0.1l-0.2-0.7
		c0.7,0.1,1.4,0.1,2,0.1h5.3v-1.9h-3.4v0.2c0,0.5-0.3,0.7-1,0.7c-0.5,0-0.7-0.2-0.7-0.6l0.1-3.1c0-0.6,0-1.2-0.1-1.7
		c0.5,0.2,1.1,0.5,1.9,0.9H83.1z M83.1,19.6h-3.4v2.8h3.4V19.6z M82.2,16.8h3.5v-2h-3.5V16.8z M88.3,22.4v-2.8h-3.5v2.8H88.3z"/>
	<path class="st6" d="M97.4,24.3c-0.7,0.8-1.3,1.5-1.8,1.9c-0.5,0.4-1.1,0.8-1.8,1.2c0,0,0,0,0,0c-0.1,0-0.1-0.1-0.1-0.2
		c0,0,0,0,0,0c0.9-0.9,1.6-1.8,2.2-2.7c0.5-0.8,0.9-1.6,1.3-2.6h-1.7c-0.3,0-0.7,0-1.1,0.1l-0.2-0.7c0.4,0.1,0.8,0.1,1.2,0.1h2v-0.5
		c0-0.4,0-0.9-0.1-1.4c0.8,0.1,1.4,0.1,1.7,0.2c0.3,0.1,0.4,0.2,0.4,0.3c0,0.1-0.2,0.3-0.5,0.4v1h1.3c0.5-0.6,0.8-0.9,1-0.9
		c0.1,0,0.5,0.2,1,0.7c0.3,0.2,0.4,0.4,0.4,0.5s-0.1,0.2-0.2,0.2h-3.4v0.9c1.8,0.3,2.7,1,2.7,1.9c0,0.3-0.1,0.5-0.2,0.6
		c-0.1,0.1-0.3,0.2-0.5,0.2c-0.2,0-0.4-0.1-0.5-0.2c-0.1-0.1-0.2-0.3-0.3-0.6c-0.3-0.7-0.6-1.2-1-1.6v0.7l0.1,4.4
		c0,0.5-0.3,0.7-1,0.7c-0.3,0-0.5-0.1-0.6-0.2c-0.1-0.1-0.1-0.3-0.1-0.5c0-0.1,0-0.6,0.1-1.6C97.3,25.8,97.4,25,97.4,24.3z
		 M98.5,18.8c0.3-0.9,0.6-1.6,0.7-2.2c0.1-0.4,0.2-0.8,0.2-1.2c1.3,0.4,2,0.7,2,0.9c0,0.2-0.2,0.3-0.7,0.3c-0.6,0.8-1.2,1.5-1.8,2.2
		h1.2c0.6-0.7,0.9-1.1,1.1-1.1c0.1,0,0.5,0.2,1.1,0.7c0.3,0.3,0.5,0.5,0.5,0.6c0,0.1-0.1,0.2-0.2,0.2h-7.2c-0.3,0-0.6,0-1.1,0.1
		L94,18.6c0.4,0.1,0.9,0.1,1.2,0.1H98.5z M97.3,14.8v-1.2c0-0.5,0-0.9-0.1-1.4c1.5,0.1,2.2,0.3,2.2,0.5c0,0.2-0.2,0.3-0.6,0.5v1.6
		h1.2c0.4-0.6,0.7-0.9,0.9-0.9c0.1,0,0.4,0.2,1,0.7c0.3,0.2,0.4,0.4,0.4,0.5c0,0.1-0.1,0.2-0.2,0.2h-6.4c-0.3,0-0.7,0-1.1,0.1
		l-0.2-0.7c0.4,0.1,0.8,0.2,1.2,0.2H97.3z M97.6,17.5c0,0.3-0.1,0.5-0.3,0.7c-0.1,0.2-0.3,0.2-0.6,0.2c-0.3,0-0.5-0.1-0.5-0.2
		c-0.1-0.1-0.1-0.5-0.2-1c-0.1-0.6-0.2-1.1-0.5-1.5c0,0,0,0,0,0c0-0.1,0-0.1,0.1-0.1c0,0,0,0,0,0C97,16.1,97.6,16.7,97.6,17.5z
		 M104.6,18.7c-0.1,1.5-0.2,2.8-0.4,3.8c-0.3,1.6-0.8,2.9-1.5,3.9c-0.6,0.8-1.3,1.6-2.3,2.2c0,0,0,0,0,0c0,0-0.1,0-0.1-0.1
		c0,0-0.1-0.1-0.1-0.1c0,0,0,0,0,0c0.8-1,1.4-2,1.8-3.1c0.4-1,0.6-2.3,0.8-3.8c0.1-0.9,0.1-2.6,0.1-5.1c0-0.7,0-1.5-0.1-2.4
		c0.9,0.4,1.5,0.6,1.9,0.8c0.8-0.4,1.6-0.9,2.4-1.6c0.4-0.3,0.7-0.6,1-1c1.2,0.7,1.8,1.2,1.8,1.4c0,0.2-0.2,0.2-0.5,0.2
		c-0.1,0-0.2,0-0.3,0c-1.7,0.8-3.2,1.2-4.5,1.4v0.4c0,0.7,0,1.5,0,2.5h3.6c0.6-0.7,0.9-1.1,1.1-1.1c0.1,0,0.5,0.3,1.1,0.8
		c0.3,0.3,0.5,0.4,0.5,0.6s-0.1,0.2-0.2,0.2h-2.5V22l0,6.2c0,0.4-0.3,0.7-1,0.7c-0.5,0-0.7-0.2-0.7-0.5l0.1-4.6v-5H104.6z"/>
	<path class="st6" d="M122.5,17.6c0-0.2,0.2-0.3,0.7-0.3c0.4,0,0.9,0.2,1.4,0.5c0.7,0.4,1,0.8,1,1.2c0,0.3-0.2,0.5-0.6,0.6
		c-0.2,0-0.5,0.1-1,0.3c-0.9,0.3-1.8,0.7-2.7,1.1c-1,0.5-1.6,0.8-1.7,0.9c0,0.3,0,0.8,0,1.4v1c0,0.3,0,0.5-0.1,0.6
		c-0.1,0.3-0.3,0.5-0.7,0.5c-0.5,0-0.8-0.3-0.8-0.9c0-0.1,0-0.3,0-0.7c0-0.4,0-0.7,0-1.1c-0.2,0.1-0.6,0.3-0.9,0.6
		c-0.5,0.4-0.9,0.7-1.1,1c-0.2,0.3-0.3,0.6-0.3,1c0,0.9,0.8,1.3,2.5,1.3c1.1,0,2,0,2.5-0.1c0.3-0.1,0.7-0.2,1.1-0.3
		c0.2-0.1,0.5-0.1,0.7-0.1c0.5,0,0.8,0.1,1.1,0.3c0.3,0.2,0.4,0.4,0.4,0.7c0,0.2-0.1,0.4-0.3,0.5c-0.4,0.3-1.6,0.5-3.5,0.5
		c-1.1,0-2,0-2.5-0.1c-0.5-0.1-0.9-0.2-1.4-0.4c-0.8-0.4-1.2-1.1-1.2-2c0-0.8,0.4-1.6,1.2-2.4c0.5-0.4,1.1-0.9,2-1.4
		c0-0.2,0-0.5,0-0.8c0-1-0.3-1.6-0.9-1.6c-0.6,0-1.3,0.4-2.1,1.2c-0.1,0.1-0.5,0.7-1.3,1.8c-0.2,0.3-0.5,0.5-0.8,0.5
		c-0.3,0-0.4-0.1-0.6-0.2c-0.1-0.1-0.2-0.3-0.2-0.6c0-0.3,0.1-0.6,0.3-0.7c0.2-0.2,0.5-0.4,0.6-0.6c0.9-0.9,1.8-2.1,2.6-3.6
		c-0.6,0.1-1,0.1-1.3,0.1c-0.1,0-0.1,0-0.2,0c-0.5,0-0.9-0.1-1.2-0.4c-0.3-0.3-0.6-0.6-0.8-1.1c-0.1-0.1-0.1-0.3-0.1-0.4
		c0-0.1,0-0.2,0.1-0.2c0.1,0,0.1,0.1,0.2,0.2c0.3,0.5,0.9,0.7,1.8,0.7c0.5,0,1.2-0.1,2.1-0.3c0.3-0.4,0.5-0.9,0.6-1.5
		c0.1-0.2,0.1-0.4,0.1-0.5c0-0.1-0.1-0.2-0.2-0.3c-0.1-0.1-0.2-0.1-0.4-0.2c-0.1-0.1-0.3-0.1-0.4-0.1c-0.1,0-0.1,0-0.1-0.1
		c0,0,0-0.1,0.1-0.2c0.1-0.1,0.4-0.2,0.7-0.2c0.7,0,1.3,0.2,1.8,0.5c0.3,0.2,0.4,0.4,0.4,0.7c0,0.2-0.1,0.3-0.3,0.5
		c-0.2,0.2-0.4,0.3-0.5,0.5c-0.2,0.3-0.4,0.5-0.5,0.8c0.5-0.1,1-0.3,1.4-0.7c0.2-0.1,0.4-0.2,0.7-0.2c0.4,0,0.7,0.1,0.9,0.2
		c0.2,0.1,0.3,0.3,0.3,0.5c0,0.3-0.2,0.5-0.5,0.6c-1,0.4-2.2,0.7-3.5,0.9c-0.4,0.6-0.6,0.9-0.6,1c-0.3,0.5-0.6,1-0.9,1.4
		c0.8-0.5,1.4-0.8,2-0.8c0.7,0,1.2,0.2,1.5,0.7c0.2,0.3,0.3,0.8,0.3,1.5c1.6-1,2.6-1.6,3.1-1.9c0.4-0.3,0.7-0.5,0.7-0.5
		c0-0.1-0.1-0.3-0.2-0.4c-0.1-0.1-0.3-0.2-0.5-0.3C122.6,17.7,122.5,17.6,122.5,17.6z"/>
	<path class="st6" d="M135.3,19.4h6.2c0.5-0.6,0.8-0.8,0.9-0.8c0.1,0,0.5,0.3,1.2,0.9c0.3,0.3,0.5,0.5,0.5,0.6
		c0,0.2-0.2,0.4-0.7,0.4c-0.2,0-0.4,0.1-0.6,0.2c-0.3,0.3-0.8,0.6-1.4,1c0,0,0,0,0,0c-0.1,0-0.1,0-0.1-0.1c0,0,0,0,0,0
		c0.2-0.6,0.4-1.1,0.5-1.7h-6.4v0c0,0.6-0.1,1.1-0.4,1.5c-0.2,0.4-0.6,0.6-1,0.6c-0.2,0-0.4-0.1-0.6-0.3c-0.1-0.2-0.2-0.3-0.2-0.6
		c0-0.1,0-0.1,0-0.2c-0.1,0-0.2,0.1-0.2,0.1c-0.2,0-0.3-0.1-0.4-0.2c-0.1-0.1-0.1-0.3-0.1-0.7l-0.8,0.3v2.6l0.1,5.2
		c0,0.4-0.3,0.6-0.9,0.6c-0.5,0-0.7-0.2-0.7-0.5c0.1-1.1,0.1-2.5,0.1-4v-1.3c-0.1,0.1-0.2,0.1-0.5,0.2c-0.6,1.7-1.3,3.1-2.2,4.2
		c0,0,0,0-0.1,0c-0.1,0-0.1,0-0.1-0.1c0,0,0,0,0,0c0.3-1,0.6-2.2,0.8-3.5c0.1-0.7,0.2-1.3,0.2-1.8c1.2,0.4,1.8,0.6,1.9,0.7v-2
		c-0.3,0.1-0.9,0.2-1.7,0.4c-0.1,0.3-0.2,0.5-0.4,0.5c-0.2,0-0.4-0.7-0.6-2c0.6,0,1.2,0.1,1.8,0.1h0c0.6-1,1.1-2,1.7-3.1
		c0.5-1,0.7-1.7,0.8-2.1c1.3,0.6,2,1,2,1.1c0,0.2-0.2,0.3-0.6,0.3c0,0-0.1,0-0.1,0c-0.5,0.8-1,1.5-1.5,2c-0.3,0.4-0.9,1-1.7,1.8
		c0.5,0,1.2,0,2.2-0.1h0.3c-0.1-0.5-0.3-0.9-0.5-1.4c0,0,0,0,0,0c0,0,0-0.1,0.1-0.1c0,0,0,0,0,0c1.2,0.6,1.7,1.3,1.7,2
		c0,0.1,0,0.1,0,0.2c0.8-0.5,1.1-1.1,1.1-1.8c0-0.1,0-0.1,0.1-0.1c0,0,0.1,0,0.1,0.1C135.2,18.8,135.3,19,135.3,19.4z M129.3,15.6
		c0.3-0.8,0.5-1.5,0.7-2.1c0.1-0.6,0.2-1.1,0.2-1.4c1.5,0.5,2.2,0.8,2.2,1c0,0.2-0.2,0.3-0.7,0.3c-0.8,1-1.5,1.8-2.1,2.3
		c0.5,0.4,0.8,0.8,0.8,1.3c0,0.3-0.1,0.6-0.3,0.8c-0.2,0.2-0.3,0.2-0.6,0.2c-0.2,0-0.4-0.1-0.5-0.2c-0.1-0.1-0.2-0.4-0.3-0.9
		c-0.2-0.7-0.5-1.3-1-1.8c0,0,0,0,0-0.1c0-0.1,0-0.1,0.1-0.1h0C128.4,15.2,128.9,15.4,129.3,15.6z M134.1,24.8
		c0,0.3-0.1,0.6-0.3,0.8c-0.2,0.2-0.4,0.3-0.6,0.3c-0.3,0-0.4-0.1-0.5-0.3c-0.1-0.2-0.1-0.5-0.1-1.1c-0.1-0.9-0.3-1.6-0.5-2.2
		c0,0,0,0,0,0c0-0.1,0-0.1,0.1-0.1c0,0,0,0,0,0C133.5,23.1,134.1,24,134.1,24.8z M138.1,21.6c0,0.1-0.2,0.3-0.5,0.4
		c0,0.2,0,0.5,0,0.8c-0.1,1.6-0.5,2.8-1.2,3.7c-0.8,1-2.1,1.7-3.9,2.2c0,0-0.1,0-0.1-0.1c0,0-0.1-0.1-0.1-0.1c0,0,0,0,0,0
		c1.2-0.6,2.2-1.5,2.7-2.4c0.5-0.9,0.8-2.2,0.8-3.9c0-0.3,0-0.7-0.1-1.2c1,0.1,1.7,0.2,1.9,0.3C138,21.4,138.1,21.4,138.1,21.6z
		 M139.1,15.2v2.1h1.5c0.6-0.7,0.9-1,1.1-1c0.1,0,0.5,0.2,1.1,0.7c0.3,0.2,0.5,0.4,0.5,0.5c0,0.1-0.1,0.2-0.2,0.2h-7.5
		c-0.3,0-0.6,0-1,0.1l-0.2-0.7c0.4,0.1,0.8,0.1,1.2,0.1h2v-2.1H135c-0.3,0-0.7,0-1.1,0.1l-0.2-0.7c0.5,0.1,0.9,0.1,1.3,0.1h2.4v-1.1
		c0-0.3,0-0.7-0.1-1.4c1.5,0.1,2.3,0.3,2.3,0.5c0,0.1-0.2,0.3-0.5,0.5v1.5h1.8c0.6-0.8,1-1.2,1.2-1.2c0.1,0,0.5,0.3,1.2,0.8
		c0.3,0.3,0.5,0.5,0.5,0.6c0,0.1-0.1,0.2-0.2,0.2H139.1z M144.2,27.2c0,0.4-0.2,0.7-0.7,0.9c-0.5,0.2-1.2,0.3-2.2,0.3
		c-1.1,0-1.8-0.1-2.1-0.4c-0.3-0.2-0.4-0.7-0.4-1.4l0-2c0-1.4,0-2.6-0.1-3.6c1.1,0.1,1.7,0.2,1.9,0.3c0.2,0.1,0.3,0.1,0.3,0.3
		c0,0.2-0.2,0.3-0.5,0.4v4.5c0,0.2,0,0.3,0.1,0.4c0.1,0,0.3,0.1,0.6,0.1c0.5,0,0.8,0,0.9,0c0.2,0,0.3-0.1,0.4-0.2
		c0.3-0.3,0.6-0.9,0.9-2c0,0,0-0.1,0.1-0.1c0.1,0,0.1,0,0.1,0.1c0,1-0.1,1.5-0.1,1.5c0,0.2,0.1,0.3,0.2,0.4
		C144,26.6,144.2,26.8,144.2,27.2z"/>
	<path class="st6" d="M148.3,23.5c0,0.1,0.1,0.1,0.2,0.1c0.1,0,0.2-0.1,0.2-0.2c0.3-0.6,0.7-1.6,1.3-3c0.1-0.2,0.1-0.3,0.2-0.3
		c0.1,0,0.1,0.1,0.1,0.2c0,0.1-0.1,0.4-0.2,0.9c-0.1,0.3-0.2,0.7-0.3,1.1c-0.1,0.4-0.2,0.7-0.2,1c-0.2,0.7-0.2,1.2-0.2,1.4
		c0,0.2,0,0.4,0.1,0.6c0,0.2,0.1,0.4,0.1,0.5c0,0.5-0.2,0.8-0.6,0.8c-0.4,0-0.8-0.3-1.2-0.9c-0.6-0.9-0.9-2.1-0.9-3.7
		c0-1.1,0.1-2.4,0.4-4c0.1-0.3,0.1-0.6,0.1-0.9c0-0.2,0.1-0.4,0.1-0.5c0.1-0.5,0.1-1,0.1-1.3c0-0.4-0.2-0.9-0.5-1.3
		c-0.1-0.1-0.1-0.2-0.1-0.3c0-0.1,0.1-0.2,0.2-0.2c0.2,0,0.5,0.1,0.9,0.4c0.3,0.2,0.5,0.4,0.7,0.7c0.4,0.5,0.6,1,0.6,1.4
		c0,0.2-0.1,0.5-0.3,0.7c-0.2,0.3-0.3,0.5-0.4,0.7c-0.5,1.8-0.8,3.1-0.8,4C148,22.4,148.1,23,148.3,23.5z M157.3,17.1
		c0.5-0.1,0.8-0.2,0.9-0.3c0.2-0.1,0.4-0.1,0.6-0.1c0.1,0,0.3,0,0.4,0c0.6,0.1,0.9,0.4,0.9,0.9c0,0.3-0.2,0.5-0.6,0.5
		c-0.1,0-0.4,0-1,0.1c-0.4,0-0.8,0-1.2,0.1c0,0.7,0,1.7,0,2.9c0,1.8-0.4,3.3-1.1,4.3c-0.8,1.2-2.2,2.1-4.1,2.6
		c-0.3,0.1-0.5,0.1-0.6,0.1c-0.1,0-0.2-0.1-0.2-0.2c0-0.1,0.1-0.1,0.3-0.2c0.8-0.3,1.5-0.8,2.2-1.4c0.5-0.5,0.9-1,1.2-1.5
		c0.6-1,0.8-2.5,0.8-4.2l0-1.5c0-0.3,0-0.5,0-0.6c-0.2,0-0.5,0.1-0.9,0.1c-0.3,0-0.5,0.1-0.5,0.1c-0.8,0.1-1.2,0.2-1.3,0.2
		c-0.6,0-1.2-0.3-1.8-0.8c-0.2-0.2-0.3-0.4-0.3-0.5c0-0.1,0-0.1,0.1-0.1c0,0,0.1,0,0.2,0.1c0.4,0.2,0.9,0.2,1.5,0.2
		c0.4,0,1.3-0.1,2.9-0.4c0-0.4,0-1.1,0-2.1c0-0.5-0.1-0.8-0.2-0.9c-0.1-0.1-0.2-0.2-0.5-0.3c-0.1,0-0.3-0.1-0.6-0.2
		c-0.1,0-0.2-0.1-0.2-0.1c0-0.1,0.1-0.2,0.3-0.3c0.3-0.2,0.6-0.3,0.9-0.3c0.3,0,0.7,0.1,1.2,0.4c0.6,0.4,1,0.8,1,1.1
		c0,0.2-0.1,0.3-0.2,0.5c-0.1,0.1-0.2,0.3-0.2,0.5C157.3,16.1,157.3,16.6,157.3,17.1z"/>
	<path class="st6" d="M165.6,21L165.6,21c1.2-1,2.4-1.5,3.7-1.5c1.3,0,2.4,0.4,3.2,1.1c0.4,0.3,0.7,0.7,0.9,1.2
		c0.2,0.5,0.3,0.9,0.3,1.4c0,1.5-0.6,2.7-1.8,3.6c-1,0.7-2.2,1.1-3.6,1.1c-1.1,0-1.9-0.2-2.5-0.5c-0.6-0.4-0.9-1-0.9-1.7
		c0-0.5,0.2-1,0.6-1.3c0.4-0.3,0.9-0.4,1.5-0.4c0.8,0,1.4,0.3,2.1,0.9c0.4,0.4,0.7,0.9,0.9,1.5c0.5-0.2,0.9-0.5,1.3-0.9
		c0.4-0.5,0.7-1.3,0.7-2.2c0-0.9-0.3-1.6-0.9-2.2c-0.5-0.5-1.2-0.7-2.1-0.7c-1,0-2,0.3-2.9,1c-0.7,0.5-1.4,1.3-2.1,2.3
		c-0.3,0.5-0.6,0.7-0.9,0.7c-0.2,0-0.4-0.1-0.5-0.2c-0.2-0.2-0.3-0.4-0.3-0.7c0-0.3,0.1-0.6,0.3-0.8c1.5-1.6,2.6-2.9,3.5-3.8
		c0.9-1,1.8-2.2,2.8-3.6c0.1-0.2,0.2-0.3,0.2-0.4c0-0.1,0-0.1-0.2-0.1c0,0,0,0-0.1,0c-0.4,0.1-1.1,0.4-1.9,0.8
		c-0.3,0.1-0.6,0.3-1,0.5c-0.2,0.2-0.5,0.4-0.7,0.4c-0.3,0-0.6-0.1-0.8-0.4c-0.5-0.5-0.7-1-0.7-1.4c0-0.2,0-0.3,0.1-0.5
		c0.1-0.1,0.1-0.2,0.2-0.2c0.1,0,0.2,0.1,0.3,0.3c0.3,0.3,0.5,0.5,0.8,0.5c0.6,0,1.6-0.2,3.1-0.7c0.4-0.1,0.7-0.3,0.9-0.5
		c0.1-0.2,0.3-0.2,0.5-0.2c0.5,0,1,0.3,1.6,0.8c0.2,0.2,0.3,0.4,0.3,0.6c0,0.2-0.1,0.4-0.3,0.5c-0.3,0.2-0.6,0.4-0.7,0.5
		c-0.5,0.5-1.4,1.3-2.5,2.6c-0.2,0.3-0.7,0.7-1.2,1.4C166.3,20.3,165.9,20.7,165.6,21z M168.5,26.7c-0.2-0.7-0.5-1.2-0.8-1.6
		c-0.4-0.3-0.8-0.5-1.1-0.5c-0.4,0-0.7,0.1-0.8,0.3c-0.1,0.2-0.2,0.4-0.2,0.6c0,0.4,0.2,0.7,0.5,0.9c0.4,0.2,1,0.3,1.7,0.3
		C168.1,26.8,168.4,26.8,168.5,26.7z"/>
</g>
</svg>
