<?xml version="1.0" encoding="utf-8"?>
<!-- Generator: Adobe Illustrator 25.0.1, SVG Export Plug-In . SVG Version: 6.00 Build 0)  -->
<svg version="1.1"
	 id="レイヤー_1" xmlns:cc="http://creativecommons.org/ns#" xmlns:dc="http://purl.org/dc/elements/1.1/" xmlns:inkscape="http://www.inkscape.org/namespaces/inkscape" xmlns:rdf="http://www.w3.org/1999/02/22-rdf-syntax-ns#" xmlns:sodipodi="http://sodipodi.sourceforge.net/DTD/sodipodi-0.dtd" xmlns:svg="http://www.w3.org/2000/svg"
	 xmlns="http://www.w3.org/2000/svg" xmlns:xlink="http://www.w3.org/1999/xlink" x="0px" y="0px" viewBox="0 0 108 15"
	 style="enable-background:new 0 0 108 15;" xml:space="preserve">
<style type="text/css">
	.st0{enable-background:new    ;}
	.st1{fill:#202253;}
</style>
<sodipodi:namedview  bordercolor="#666666" borderopacity="1" gridtolerance="10" guidetolerance="10" id="namedview25" inkscape:current-layer="レイヤー_1" inkscape:cx="49.617411" inkscape:cy="5.6978446" inkscape:pageopacity="0" inkscape:pageshadow="2" inkscape:window-height="480" inkscape:window-maximized="0" inkscape:window-width="719" inkscape:window-x="0" inkscape:window-y="0" inkscape:zoom="5.6990741" objecttolerance="10" pagecolor="#ffffff" showgrid="false">
	</sodipodi:namedview>
<g class="st0">
	<path class="st1" d="M12.1,12.9V4.1h2.1c1.2,0,2.2,0.2,2.9,0.5s1.3,0.8,1.7,1.5s0.6,1.5,0.6,2.5c0,1.2-0.4,2.2-1.2,3.1
		s-2.1,1.3-4,1.3H12.1z M13.2,5v7h1.1c1.4,0,2.4-0.3,3-0.9s0.9-1.5,0.9-2.6c0-1.1-0.3-1.9-1-2.6S15.7,5,14.3,5H13.2z"/>
	<path class="st1" d="M26.8,12.9h-5.7V4.1h5.7v0.9h-4.7v2.6h4.5v0.9h-4.5V12h4.7V12.9z"/>
	<path class="st1" d="M35.5,4.1L32,12.9h-1l-3.5-8.8h1.2l2.9,7.3l2.8-7.3H35.5z"/>
	<path class="st1" d="M42.4,12.9h-5.7V4.1h5.7v0.9h-4.7v2.6h4.5v0.9h-4.5V12h4.7V12.9z"/>
	<path class="st1" d="M49.6,12.9h-5.5V4.1h1.1V12h4.4V12.9z"/>
	<path class="st1" d="M54.1,13.1c-1.3,0-2.2-0.4-3-1.2s-1.1-1.9-1.1-3.4c0-1.4,0.4-2.6,1.1-3.4s1.7-1.2,3-1.2c1.3,0,2.2,0.4,3,1.2
		s1.1,1.9,1.1,3.4c0,1.4-0.4,2.6-1.1,3.4S55.4,13.1,54.1,13.1z M54.1,4.9c-0.9,0-1.6,0.3-2.1,1s-0.8,1.5-0.8,2.7s0.3,2.1,0.8,2.7
		s1.2,1,2.1,1c0.9,0,1.6-0.3,2.1-1S57,9.7,57,8.5c0-1.2-0.3-2.1-0.8-2.7S55,4.9,54.1,4.9z"/>
	<path class="st1" d="M60.9,9.6v3.3h-1.1V4.1h2.4c1.1,0,2,0.2,2.5,0.7s0.8,1.1,0.8,1.9c0,0.8-0.3,1.5-0.9,2.1s-1.4,0.8-2.5,0.8H60.9
		z M60.9,5v3.7H62c0.9,0,1.5-0.2,1.9-0.5s0.6-0.8,0.6-1.4s-0.2-1-0.5-1.3S62.9,5,62.1,5H60.9z"/>
	<path class="st1" d="M74.7,12.9h-1.1V5.4l-2.5,5.2h-0.6L68,5.4v7.6h-1V4.1h1.4l2.5,5.1l2.5-5.1h1.4V12.9z"/>
	<path class="st1" d="M82.7,12.9h-5.7V4.1h5.7v0.9H78v2.6h4.5v0.9H78V12h4.7V12.9z"/>
	<path class="st1" d="M91,12.9h-1.3l-4.4-7.7v7.7h-1V4.1h1.5l4.2,7.2V4.1h1V12.9z"/>
	<path class="st1" d="M95.4,12.9V5.1h-3.1V4.1h7.4v0.9h-3.1v7.9H95.4z"/>
</g>
</svg>
