<?xml version="1.0" encoding="utf-8"?>
<!-- Generator: Adobe Illustrator 25.0.1, SVG Export Plug-In . SVG Version: 6.00 Build 0)  -->
<svg version="1.1"
	 id="レイヤー_1" xmlns:cc="http://creativecommons.org/ns#" xmlns:dc="http://purl.org/dc/elements/1.1/" xmlns:inkscape="http://www.inkscape.org/namespaces/inkscape" xmlns:rdf="http://www.w3.org/1999/02/22-rdf-syntax-ns#" xmlns:sodipodi="http://sodipodi.sourceforge.net/DTD/sodipodi-0.dtd" xmlns:svg="http://www.w3.org/2000/svg"
	 xmlns="http://www.w3.org/2000/svg" xmlns:xlink="http://www.w3.org/1999/xlink" x="0px" y="0px" viewBox="0 0 108 15"
	 style="enable-background:new 0 0 108 15;" xml:space="preserve">
<style type="text/css">
	.st0{enable-background:new    ;}
	.st1{fill:#202253;}
</style>
<sodipodi:namedview  bordercolor="#666666" borderopacity="1" gridtolerance="10" guidetolerance="10" id="namedview27" inkscape:current-layer="レイヤー_1" inkscape:cx="28.003954" inkscape:cy="6.6675219" inkscape:pageopacity="0" inkscape:pageshadow="2" inkscape:window-height="480" inkscape:window-maximized="0" inkscape:window-width="719" inkscape:window-x="0" inkscape:window-y="0" inkscape:zoom="2.849537" objecttolerance="10" pagecolor="#ffffff" showgrid="false">
	</sodipodi:namedview>
<g class="st0">
	<path class="st1" d="M14.6,12.5c-1,0-2-0.2-3.1-0.7v-1.3h0.1c0.9,0.8,1.9,1.1,3.1,1.1c0.7,0,1.3-0.1,1.7-0.4s0.6-0.7,0.6-1.1
		c0-0.4-0.1-0.7-0.3-0.9s-0.5-0.4-0.9-0.5l-2-0.4c-0.7-0.2-1.3-0.4-1.7-0.8s-0.6-0.9-0.6-1.6c0-0.7,0.3-1.3,0.9-1.8s1.3-0.7,2.3-0.7
		c1,0,2,0.2,3,0.7v1.3h-0.1c-0.8-0.7-1.8-1-2.9-1c-0.6,0-1.1,0.1-1.5,0.4s-0.6,0.6-0.6,1.1c0,0.7,0.4,1.2,1.3,1.4
		c0.5,0.1,1,0.2,1.6,0.3s1,0.3,1.3,0.4c0.3,0.1,0.5,0.3,0.6,0.5s0.3,0.4,0.4,0.6S18,9.5,18,9.8c0,0.8-0.3,1.4-0.9,1.9
		S15.6,12.5,14.6,12.5z"/>
	<path class="st1" d="M25.3,12.3h-5.7V3.5h5.7v0.9h-4.7V7h4.5v0.9h-4.5v3.4h4.7V12.3z"/>
	<path class="st1" d="M29.6,12.5c-1,0-2-0.2-3.1-0.7v-1.3h0.1c0.9,0.8,1.9,1.1,3.1,1.1c0.7,0,1.3-0.1,1.7-0.4s0.6-0.7,0.6-1.1
		c0-0.4-0.1-0.7-0.3-0.9s-0.5-0.4-0.9-0.5l-2-0.4c-0.7-0.2-1.3-0.4-1.7-0.8s-0.6-0.9-0.6-1.6c0-0.7,0.3-1.3,0.9-1.8s1.3-0.7,2.3-0.7
		c1,0,2,0.2,3,0.7v1.3h-0.1c-0.8-0.7-1.8-1-2.9-1c-0.6,0-1.1,0.1-1.5,0.4s-0.6,0.6-0.6,1.1c0,0.7,0.4,1.2,1.3,1.4
		c0.5,0.1,1,0.2,1.6,0.3s1,0.3,1.3,0.4c0.3,0.1,0.5,0.3,0.6,0.5s0.3,0.4,0.4,0.6S33,9.5,33,9.8c0,0.8-0.3,1.4-0.9,1.9
		S30.7,12.5,29.6,12.5z"/>
	<path class="st1" d="M38.6,12.3V3.5h2.6c0.4,0,0.7,0,1,0s0.6,0.1,0.9,0.2s0.5,0.2,0.8,0.4s0.4,0.4,0.5,0.6s0.2,0.5,0.2,0.8
		c0,0.8-0.4,1.4-1.2,1.8v0c0.6,0.1,1.1,0.4,1.4,0.8C45,8.5,45.2,9,45.2,9.6c0,0.8-0.3,1.5-0.9,2s-1.5,0.7-2.6,0.7H38.6z M39.7,4.4
		v2.7h1.6c0.8,0,1.3-0.1,1.6-0.4s0.5-0.6,0.5-1.1c0-0.4-0.1-0.6-0.4-0.9s-0.9-0.3-1.8-0.3H39.7z M39.7,8v3.4h1.6
		c1.1,0,1.9-0.2,2.2-0.5s0.5-0.7,0.5-1.3c0-0.3-0.1-0.6-0.2-0.9s-0.3-0.4-0.6-0.6S42.4,8,41.6,8H39.7z"/>
	<path class="st1" d="M53.4,8.8c0,1.3-0.3,2.2-0.9,2.8s-1.4,0.9-2.5,0.9c-2.3,0-3.4-1.2-3.4-3.7V3.5h1.1v5.4c0,0.9,0.2,1.6,0.6,2
		s1,0.6,1.7,0.6c0.8,0,1.3-0.2,1.7-0.6s0.6-1.1,0.6-2V3.5h1.1V8.8z"/>
	<path class="st1" d="M58.1,12.5c-1,0-2-0.2-3.1-0.7v-1.3h0.1c0.9,0.8,1.9,1.1,3.1,1.1c0.7,0,1.3-0.1,1.7-0.4s0.6-0.7,0.6-1.1
		c0-0.4-0.1-0.7-0.3-0.9s-0.5-0.4-0.9-0.5l-2-0.4c-0.7-0.2-1.3-0.4-1.7-0.8s-0.6-0.9-0.6-1.6c0-0.7,0.3-1.3,0.9-1.8s1.3-0.7,2.3-0.7
		c1,0,2,0.2,3,0.7v1.3h-0.1c-0.8-0.7-1.8-1-2.9-1c-0.6,0-1.1,0.1-1.5,0.4s-0.6,0.6-0.6,1.1c0,0.7,0.4,1.2,1.3,1.4
		c0.5,0.1,1,0.2,1.6,0.3s1,0.3,1.3,0.4c0.3,0.1,0.5,0.3,0.6,0.5s0.3,0.4,0.4,0.6s0.1,0.5,0.1,0.8c0,0.8-0.3,1.4-0.9,1.9
		S59.2,12.5,58.1,12.5z"/>
	<path class="st1" d="M66.1,12.3h-3.4v-0.8h1.2V4.3h-1.2V3.5h3.4v0.8h-1.2v7.2h1.2V12.3z"/>
	<path class="st1" d="M74.6,12.3h-1.3l-4.4-7.7v7.7h-1V3.5h1.5l4.2,7.2V3.5h1V12.3z"/>
	<path class="st1" d="M82.5,12.3h-5.7V3.5h5.7v0.9h-4.7V7h4.5v0.9h-4.5v3.4h4.7V12.3z"/>
	<path class="st1" d="M86.9,12.5c-1,0-2-0.2-3.1-0.7v-1.3h0.1c0.9,0.8,1.9,1.1,3.1,1.1c0.7,0,1.3-0.1,1.7-0.4s0.6-0.7,0.6-1.1
		c0-0.4-0.1-0.7-0.3-0.9S88.5,8.7,88,8.6l-2-0.4c-0.7-0.2-1.3-0.4-1.7-0.8s-0.6-0.9-0.6-1.6c0-0.7,0.3-1.3,0.9-1.8s1.3-0.7,2.3-0.7
		c1,0,2,0.2,3,0.7v1.3h-0.1c-0.8-0.7-1.8-1-2.9-1c-0.6,0-1.1,0.1-1.5,0.4S85,5.3,85,5.7c0,0.7,0.4,1.2,1.3,1.4
		c0.5,0.1,1,0.2,1.6,0.3s1,0.3,1.3,0.4c0.3,0.1,0.5,0.3,0.6,0.5s0.3,0.4,0.4,0.6s0.1,0.5,0.1,0.8c0,0.8-0.3,1.4-0.9,1.9
		S87.9,12.5,86.9,12.5z"/>
	<path class="st1" d="M94.4,12.5c-1,0-2-0.2-3.1-0.7v-1.3h0.1c0.9,0.8,1.9,1.1,3.1,1.1c0.7,0,1.3-0.1,1.7-0.4s0.6-0.7,0.6-1.1
		c0-0.4-0.1-0.7-0.3-0.9S96,8.7,95.5,8.6l-2-0.4c-0.7-0.2-1.3-0.4-1.7-0.8s-0.6-0.9-0.6-1.6c0-0.7,0.3-1.3,0.9-1.8s1.3-0.7,2.3-0.7
		c1,0,2,0.2,3,0.7v1.3h-0.1c-0.8-0.7-1.8-1-2.9-1c-0.6,0-1.1,0.1-1.5,0.4s-0.6,0.6-0.6,1.1c0,0.7,0.4,1.2,1.3,1.4
		c0.5,0.1,1,0.2,1.6,0.3s1,0.3,1.3,0.4C97,8,97.2,8.2,97.3,8.4s0.3,0.4,0.4,0.6s0.1,0.5,0.1,0.8c0,0.8-0.3,1.4-0.9,1.9
		S95.4,12.5,94.4,12.5z"/>
</g>
</svg>
