<?xml version="1.0" encoding="utf-8"?>
<!-- Generator: Adobe Illustrator 25.0.1, SVG Export Plug-In . SVG Version: 6.00 Build 0)  -->
<svg version="1.1"
	 id="レイヤー_1" xmlns:cc="http://creativecommons.org/ns#" xmlns:dc="http://purl.org/dc/elements/1.1/" xmlns:inkscape="http://www.inkscape.org/namespaces/inkscape" xmlns:rdf="http://www.w3.org/1999/02/22-rdf-syntax-ns#" xmlns:sodipodi="http://sodipodi.sourceforge.net/DTD/sodipodi-0.dtd" xmlns:svg="http://www.w3.org/2000/svg"
	 xmlns="http://www.w3.org/2000/svg" xmlns:xlink="http://www.w3.org/1999/xlink" x="0px" y="0px" viewBox="0 0 108 15"
	 style="enable-background:new 0 0 108 15;" xml:space="preserve">
<style type="text/css">
	.st0{enable-background:new    ;}
	.st1{fill:#202253;}
</style>
<sodipodi:namedview  bordercolor="#666666" borderopacity="1" gridtolerance="10" guidetolerance="10" id="namedview29" inkscape:current-layer="レイヤー_1" inkscape:cx="52.150082" inkscape:cy="13.254467" inkscape:pageopacity="0" inkscape:pageshadow="2" inkscape:window-height="480" inkscape:window-maximized="0" inkscape:window-width="712" inkscape:window-x="0" inkscape:window-y="0" inkscape:zoom="4.0298539" objecttolerance="10" pagecolor="#ffffff" showgrid="false">
	</sodipodi:namedview>
<g class="st0">
	<path class="st1" d="M27.1,4.5l-2.5,8.8h-1l-2-7.3l-2,7.3h-0.9l-2.5-8.8h1.1l1.9,7.1l1.9-7.1h1l1.9,7.1L26,4.5H27.1z"/>
	<path class="st1" d="M34.4,13.3h-5.7V4.5h5.7v0.9h-4.7V8h4.5v0.9h-4.5v3.4h4.7V13.3z"/>
	<path class="st1" d="M36.1,13.3V4.5h2.6c0.4,0,0.7,0,1,0s0.6,0.1,0.9,0.2s0.5,0.2,0.8,0.4s0.4,0.4,0.5,0.6S42,6.1,42,6.4
		c0,0.8-0.4,1.4-1.2,1.8v0c0.6,0.1,1.1,0.4,1.4,0.8s0.5,0.9,0.5,1.5c0,0.8-0.3,1.5-0.9,2s-1.5,0.7-2.6,0.7H36.1z M37.2,5.4v2.7h1.6
		c0.8,0,1.3-0.1,1.6-0.4s0.5-0.6,0.5-1.1c0-0.4-0.1-0.6-0.4-0.9s-0.9-0.3-1.8-0.3H37.2z M37.2,9v3.4h1.6c1.1,0,1.9-0.2,2.2-0.5
		s0.5-0.7,0.5-1.3c0-0.3-0.1-0.6-0.2-0.9S41,9.3,40.7,9.2S39.9,9,39.1,9H37.2z"/>
	<path class="st1" d="M51.9,13.5c-1.3,0-2.4-0.4-3.1-1.2s-1.1-1.9-1.1-3.4c0-1.4,0.4-2.5,1.1-3.4s1.8-1.2,3.1-1.2
		c0.9,0,1.9,0.3,2.9,0.8v1.3h-0.1c-0.9-0.8-1.9-1.2-2.9-1.2c-0.9,0-1.7,0.3-2.2,1s-0.8,1.5-0.8,2.7c0,1.1,0.3,2,0.8,2.7s1.3,1,2.2,1
		c0.5,0,1-0.1,1.4-0.2s0.9-0.5,1.5-0.9h0.1v1.3c-0.8,0.4-1.3,0.6-1.7,0.7S52.3,13.5,51.9,13.5z"/>
	<path class="st1" d="M63.5,13.3h-1.4l-2.9-3.6h-1.8v3.6h-1.1V4.5h2.5c1.2,0,2,0.2,2.5,0.7s0.8,1,0.8,1.7c0,1.2-0.6,2.1-1.8,2.6
		L63.5,13.3z M57.4,5.4v3.5h1.3c0.8,0,1.4-0.2,1.7-0.5S61,7.5,61,6.9c0-1-0.7-1.5-2.1-1.5H57.4z"/>
	<path class="st1" d="M70.3,13.3h-5.7V4.5h5.7v0.9h-4.7V8h4.5v0.9h-4.5v3.4h4.7V13.3z"/>
	<path class="st1" d="M77.7,13.3l-0.9-2.5H73l-0.9,2.5H71l3.3-8.8h1.4l3.3,8.8H77.7z M76.5,9.9l-1.6-4.4l-1.6,4.4H76.5z"/>
	<path class="st1" d="M81.6,13.3V5.4h-3.1V4.5h7.4v0.9h-3.1v7.9H81.6z"/>
	<path class="st1" d="M92.7,13.3H87V4.5h5.7v0.9h-4.7V8h4.5v0.9h-4.5v3.4h4.7V13.3z"/>
</g>
</svg>
